<svg xmlns="http://www.w3.org/2000/svg" xmlns:xlink="http://www.w3.org/1999/xlink" width="500" zoomAndPan="magnify" viewBox="0 0 375 374.999991" height="500" preserveAspectRatio="xMidYMid meet" version="1.0"><defs><clipPath id="ec14668f71"><path d="M 64.027344 64.027344 L 310.777344 64.027344 L 310.777344 310.777344 L 64.027344 310.777344 Z M 64.027344 64.027344 " clip-rule="nonzero"/></clipPath></defs><g clip-path="url(#ec14668f71)"><path fill="#673ab7" d="M 310.777344 276.507812 C 310.777344 295.4375 295.4375 310.777344 276.507812 310.777344 L 98.296875 310.777344 C 79.375 310.777344 64.027344 295.4375 64.027344 276.507812 L 64.027344 98.296875 C 64.027344 79.367188 79.375 64.027344 98.296875 64.027344 L 276.507812 64.027344 C 295.4375 64.027344 310.777344 79.367188 310.777344 98.296875 Z M 310.777344 276.507812 " fill-opacity="1" fill-rule="nonzero"/></g><path fill="#ffffff" d="M 249.296875 198.371094 C 244.839844 192.199219 238.398438 187.949219 230.105469 185.6875 C 230.105469 185.6875 237.09375 183.152344 243.402344 173.695312 C 247.171875 167.664062 249.089844 160.398438 249.089844 151.898438 C 249.089844 137.160156 243.742188 125.851562 233.050781 118.105469 C 222.359375 110.363281 210.296875 105.152344 189.800781 105.152344 L 125.714844 105.152344 L 125.714844 269.652344 L 197.203125 269.652344 C 216.601562 269.515625 231.199219 265.335938 241.140625 257.316406 C 251.007812 249.160156 255.945312 237.09375 255.945312 220.988281 C 255.945312 212.078125 253.75 204.539062 249.296875 198.371094 Z M 166.839844 132.570312 C 166.839844 132.570312 195.421875 132.570312 195.96875 132.570312 C 206.390625 132.570312 214.820312 141 214.820312 151.417969 C 214.820312 161.835938 206.390625 170.265625 195.96875 170.265625 C 195.421875 170.265625 166.839844 170.265625 166.839844 170.265625 Z M 201.109375 242.234375 L 166.839844 242.234375 L 166.839844 201.109375 L 201.109375 201.109375 C 212.488281 201.109375 221.671875 210.296875 221.671875 221.671875 C 221.671875 233.050781 212.488281 242.234375 201.109375 242.234375 Z M 201.109375 242.234375 " fill-opacity="1" fill-rule="nonzero"/></svg>