<svg xmlns="http://www.w3.org/2000/svg" xmlns:xlink="http://www.w3.org/1999/xlink" width="500" zoomAndPan="magnify" viewBox="0 0 375 374.999991" height="500" preserveAspectRatio="xMidYMid meet" version="1.0"><defs><clipPath id="1c52257600"><path d="M 41.40625 86 L 333.90625 86 L 333.90625 289 L 41.40625 289 Z M 41.40625 86 " clip-rule="nonzero"/></clipPath></defs><g clip-path="url(#1c52257600)"><path fill="#000000" d="M 52.234375 287.957031 C 49.503906 287.164062 45.261719 283.175781 43.199219 279.464844 L 41.40625 276.230469 L 41.40625 196.542969 C 41.40625 123.792969 41.496094 116.539062 42.421875 113.234375 C 42.976562 111.242188 44.140625 106.761719 44.996094 103.273438 C 46.8125 95.902344 48.566406 92.996094 52.921875 90.128906 C 59.050781 86.09375 49.15625 86.371094 187.480469 86.371094 C 325.824219 86.371094 315.894531 86.089844 322.066406 90.132812 C 323.726562 91.222656 325.90625 93.335938 326.902344 94.828125 C 328.667969 97.464844 329.117188 98.921875 332.339844 112.445312 L 333.878906 118.902344 L 333.71875 197.566406 C 333.558594 274.363281 333.535156 276.289062 332.367188 278.644531 C 330.609375 282.21875 325.417969 287.167969 322.609375 287.945312 C 319.644531 288.765625 55.074219 288.777344 52.234375 287.945312 Z M 307.707031 274.570312 C 307.570312 274.15625 290.46875 259.765625 269.699219 242.59375 C 248.933594 225.421875 231.460938 210.789062 230.882812 210.078125 C 229.503906 208.398438 229.511719 204.203125 230.882812 202.5 C 232.933594 199.972656 236.390625 199.136719 239.011719 200.535156 C 240.175781 201.15625 315.933594 263.496094 319.328125 266.625 L 320.84375 268.019531 L 320.683594 192.597656 C 320.566406 142.984375 320.308594 116.621094 319.898438 115.550781 L 319.28125 113.925781 L 315.527344 117.585938 C 313.460938 119.601562 287.605469 140.828125 258.074219 164.761719 C 228.539062 188.691406 202.464844 209.976562 200.132812 212.058594 C 193.328125 218.140625 191.476562 219.183594 187.472656 219.183594 C 183.441406 219.183594 181.484375 218.070312 174.574219 211.851562 C 172.1875 209.699219 146.144531 188.429688 116.703125 164.585938 C 87.261719 140.738281 61.480469 119.585938 59.417969 117.578125 L 55.664062 113.925781 L 55.042969 115.550781 C 54.636719 116.621094 54.367188 142.980469 54.261719 192.574219 L 54.101562 267.96875 L 57.125 265.40625 C 64.082031 259.503906 131.5 203.871094 134.015625 201.953125 C 135.722656 200.652344 137.4375 199.863281 138.554688 199.863281 C 140.796875 199.863281 143.6875 201.3125 144.511719 202.847656 C 145.300781 204.324219 145.316406 208.054688 144.535156 209.507812 C 144.210938 210.117188 126.652344 224.917969 105.523438 242.394531 C 84.394531 259.871094 67.105469 274.429688 67.105469 274.75 C 67.105469 275.113281 111.40625 275.324219 187.523438 275.324219 C 283.585938 275.324219 307.894531 275.171875 307.699219 274.570312 Z M 188.753906 204.320312 C 190.457031 202.265625 310.460938 105.300781 313.316406 103.667969 C 316.378906 101.914062 317.074219 100.671875 315.363281 100.015625 C 314.835938 99.816406 257.164062 99.652344 187.203125 99.652344 C 69.878906 99.652344 59.941406 99.730469 59.175781 100.644531 C 58.464844 101.5 58.511719 101.730469 59.492188 102.304688 C 60.121094 102.671875 61.890625 103.792969 63.421875 104.796875 C 66.636719 106.90625 184.945312 202.785156 186.195312 204.292969 C 187.234375 205.546875 187.722656 205.554688 188.753906 204.320312 Z M 188.753906 204.320312 " fill-opacity="1" fill-rule="nonzero"/></g></svg>