<svg xmlns="http://www.w3.org/2000/svg" xmlns:xlink="http://www.w3.org/1999/xlink" width="500" zoomAndPan="magnify" viewBox="0 0 375 374.999991" height="500" preserveAspectRatio="xMidYMid meet" version="1.0"><defs><clipPath id="872e11ec76"><path d="M 55.375 39 L 319.375 39 L 319.375 336.917969 L 55.375 336.917969 Z M 55.375 39 " clip-rule="nonzero"/></clipPath></defs><g clip-path="url(#872e11ec76)"><path fill="#539e43" d="M 187.375 336.878906 C 183.28125 336.878906 179.460938 335.785156 175.921875 333.875 L 139.640625 312.277344 C 134.183594 309.277344 136.914062 308.183594 138.550781 307.636719 C 145.914062 305.171875 147.277344 304.625 154.917969 300.25 C 155.734375 299.703125 156.824219 299.984375 157.644531 300.53125 L 185.460938 317.199219 C 186.554688 317.746094 187.921875 317.746094 188.746094 317.199219 L 297.574219 254.0625 C 298.664062 253.515625 299.210938 252.421875 299.210938 251.050781 L 299.210938 125.039062 C 299.210938 123.675781 298.664062 122.582031 297.574219 122.035156 L 188.746094 59.164062 C 187.65625 58.617188 186.285156 58.617188 185.460938 59.164062 L 76.632812 122.035156 C 75.539062 122.582031 74.992188 123.945312 74.992188 125.039062 L 74.992188 251.050781 C 74.992188 252.144531 75.539062 253.515625 76.628906 254.0625 L 106.363281 271.277344 C 122.457031 279.480469 132.546875 269.917969 132.546875 260.34375 L 132.546875 135.972656 C 132.546875 134.335938 133.914062 132.695312 135.820312 132.695312 L 149.734375 132.695312 C 151.371094 132.695312 153.007812 134.0625 153.007812 135.976562 L 153.007812 260.347656 C 153.007812 281.945312 141.277344 294.519531 120.820312 294.519531 C 114.542969 294.519531 109.636719 294.519531 95.722656 287.679688 L 67.082031 271.28125 C 59.988281 267.183594 55.625 259.53125 55.625 251.332031 L 55.625 125.320312 C 55.625 117.113281 59.988281 109.460938 67.082031 105.363281 L 175.921875 42.21875 C 182.734375 38.390625 192.019531 38.390625 198.832031 42.21875 L 307.671875 105.359375 C 314.765625 109.460938 319.128906 117.113281 319.128906 125.316406 L 319.128906 251.328125 C 319.128906 259.527344 314.765625 267.179688 307.671875 271.273438 L 198.832031 334.421875 C 195.292969 336.058594 191.195312 336.875 187.375 336.875 Z M 220.933594 250.234375 C 173.191406 250.234375 163.375 228.359375 163.375 209.773438 C 163.375 208.132812 164.730469 206.492188 166.648438 206.492188 L 180.832031 206.492188 C 182.46875 206.492188 183.824219 207.585938 183.824219 209.226562 C 186.007812 223.71875 192.285156 230.824219 221.199219 230.824219 C 244.113281 230.824219 253.933594 225.625 253.933594 213.332031 C 253.933594 206.222656 251.203125 201.027344 215.476562 197.476562 C 185.738281 194.464844 167.191406 187.90625 167.191406 164.132812 C 167.191406 141.988281 185.738281 128.867188 216.835938 128.867188 C 251.75 128.867188 268.9375 140.894531 271.121094 167.132812 C 271.121094 167.957031 270.84375 168.773438 270.296875 169.597656 C 269.753906 170.144531 268.9375 170.691406 268.117188 170.691406 L 253.933594 170.691406 C 252.574219 170.691406 251.203125 169.597656 250.9375 168.226562 C 247.664062 153.199219 239.203125 148.277344 216.835938 148.277344 C 191.742188 148.277344 188.746094 157.023438 188.746094 163.585938 C 188.746094 171.507812 192.285156 173.972656 226.109375 178.34375 C 259.664062 182.71875 275.484375 189 275.484375 212.507812 C 275.207031 236.558594 255.570312 250.234375 220.933594 250.234375 Z M 220.933594 250.234375 " fill-opacity="1" fill-rule="nonzero"/></g></svg>