<svg xmlns="http://www.w3.org/2000/svg" xmlns:xlink="http://www.w3.org/1999/xlink" width="500" zoomAndPan="magnify" viewBox="0 0 375 374.999991" height="500" preserveAspectRatio="xMidYMid meet" version="1.0"><defs><clipPath id="aa24bf9f14"><path d="M 89.015625 46.808594 L 286.265625 46.808594 L 286.265625 328.058594 L 89.015625 328.058594 Z M 89.015625 46.808594 " clip-rule="nonzero"/></clipPath></defs><g clip-path="url(#aa24bf9f14)"><path fill="#000000" d="M 173.550781 46.8125 L 145.371094 46.8125 C 114.246094 46.8125 89.015625 71.996094 89.015625 103.0625 C 89.015625 119.863281 96.394531 134.941406 108.09375 145.246094 C 96.394531 155.554688 89.015625 170.632812 89.015625 187.433594 C 89.015625 204.234375 96.394531 219.3125 108.09375 229.617188 C 96.394531 239.925781 89.015625 255.003906 89.015625 271.804688 C 89.015625 302.867188 114.246094 328.050781 145.371094 328.050781 C 176.496094 328.050781 201.730469 302.867188 201.730469 271.804688 L 201.730469 236.15625 C 210.019531 240.941406 219.644531 243.679688 229.910156 243.679688 C 261.035156 243.679688 286.265625 218.496094 286.265625 187.433594 C 286.265625 170.632812 278.886719 155.554688 267.1875 145.246094 C 278.886719 134.941406 286.265625 119.863281 286.265625 103.0625 C 286.265625 71.996094 261.035156 46.8125 229.910156 46.8125 Z M 201.730469 74.9375 L 201.730469 131.1875 L 229.910156 131.1875 C 245.472656 131.1875 258.085938 118.59375 258.085938 103.0625 C 258.085938 87.53125 245.472656 74.9375 229.910156 74.9375 Z M 173.550781 159.308594 L 145.371094 159.308594 C 129.808594 159.308594 117.195312 171.902344 117.195312 187.433594 C 117.195312 202.964844 129.808594 215.558594 145.371094 215.558594 L 173.550781 215.558594 Z M 145.371094 131.1875 L 173.550781 131.1875 L 173.550781 74.9375 L 145.371094 74.9375 C 129.808594 74.9375 117.195312 87.53125 117.195312 103.0625 C 117.195312 118.59375 129.808594 131.1875 145.371094 131.1875 Z M 201.730469 187.433594 C 201.730469 202.964844 214.34375 215.558594 229.910156 215.558594 C 245.472656 215.558594 258.085938 202.964844 258.085938 187.433594 C 258.085938 171.902344 245.472656 159.308594 229.910156 159.308594 C 214.34375 159.308594 201.730469 171.902344 201.730469 187.433594 Z M 145.371094 243.679688 L 173.550781 243.679688 L 173.550781 271.804688 C 173.550781 287.335938 160.9375 299.929688 145.371094 299.929688 C 129.808594 299.929688 117.195312 287.335938 117.195312 271.804688 C 117.195312 256.273438 129.808594 243.679688 145.371094 243.679688 Z M 145.371094 243.679688 " fill-opacity="1" fill-rule="evenodd"/></g></svg>