<svg xmlns="http://www.w3.org/2000/svg" xmlns:xlink="http://www.w3.org/1999/xlink" width="500" zoomAndPan="magnify" viewBox="0 0 375 374.999991" height="500" preserveAspectRatio="xMidYMid meet" version="1.0"><defs><clipPath id="cf74834695"><path d="M 48.285156 48.285156 L 326.535156 48.285156 L 326.535156 326.535156 L 48.285156 326.535156 Z M 48.285156 48.285156 " clip-rule="nonzero"/></clipPath></defs><g clip-path="url(#cf74834695)"><path fill="#f03c2e" d="M 321.285156 175.019531 L 199.800781 53.539062 C 199.386719 53.121094 198.953125 52.730469 198.5 52.355469 C 198.046875 51.984375 197.574219 51.636719 197.085938 51.308594 C 196.597656 50.984375 196.097656 50.679688 195.578125 50.40625 C 195.0625 50.128906 194.53125 49.878906 193.988281 49.652344 C 193.445312 49.429688 192.894531 49.230469 192.332031 49.058594 C 191.773438 48.890625 191.203125 48.746094 190.628906 48.632812 C 190.050781 48.519531 189.472656 48.433594 188.890625 48.375 C 188.304688 48.316406 187.71875 48.289062 187.132812 48.289062 C 186.546875 48.289062 185.960938 48.316406 185.375 48.375 C 184.792969 48.433594 184.210938 48.519531 183.636719 48.632812 C 183.0625 48.746094 182.492188 48.890625 181.929688 49.058594 C 181.371094 49.230469 180.816406 49.429688 180.277344 49.652344 C 179.734375 49.878906 179.203125 50.128906 178.6875 50.40625 C 178.167969 50.679688 177.664062 50.984375 177.179688 51.308594 C 176.691406 51.636719 176.21875 51.984375 175.765625 52.355469 C 175.3125 52.730469 174.878906 53.121094 174.464844 53.539062 L 149.246094 78.753906 L 181.246094 110.753906 C 188.6875 108.144531 197.210938 109.925781 203.140625 115.855469 C 203.84375 116.558594 204.492188 117.308594 205.089844 118.105469 C 205.6875 118.898438 206.226562 119.730469 206.707031 120.601562 C 207.1875 121.472656 207.605469 122.371094 207.960938 123.296875 C 208.316406 124.226562 208.605469 125.175781 208.828125 126.144531 C 209.050781 127.113281 209.203125 128.09375 209.289062 129.082031 C 209.375 130.074219 209.390625 131.066406 209.335938 132.058594 C 209.28125 133.050781 209.160156 134.035156 208.96875 135.011719 C 208.777344 135.984375 208.519531 136.941406 208.191406 137.882812 L 239.035156 168.722656 C 246.496094 166.152344 255.105469 167.8125 261.058594 173.785156 C 261.554688 174.277344 262.023438 174.796875 262.464844 175.335938 C 262.910156 175.875 263.324219 176.4375 263.714844 177.015625 C 264.101562 177.597656 264.460938 178.195312 264.789062 178.8125 C 265.121094 179.429688 265.417969 180.058594 265.6875 180.703125 C 265.953125 181.351562 266.1875 182.007812 266.390625 182.675781 C 266.59375 183.34375 266.765625 184.019531 266.902344 184.707031 C 267.039062 185.390625 267.140625 186.082031 267.207031 186.777344 C 267.277344 187.472656 267.3125 188.167969 267.3125 188.867188 C 267.3125 189.566406 267.277344 190.265625 267.207031 190.960938 C 267.140625 191.65625 267.039062 192.34375 266.902344 193.03125 C 266.765625 193.714844 266.597656 194.390625 266.394531 195.0625 C 266.191406 195.730469 265.957031 196.386719 265.6875 197.03125 C 265.421875 197.675781 265.121094 198.308594 264.792969 198.925781 C 264.464844 199.539062 264.105469 200.140625 263.714844 200.71875 C 263.328125 201.300781 262.914062 201.859375 262.46875 202.402344 C 262.027344 202.941406 261.558594 203.457031 261.0625 203.953125 C 260.570312 204.445312 260.050781 204.914062 259.511719 205.359375 C 258.972656 205.800781 258.410156 206.214844 257.828125 206.605469 C 257.25 206.992188 256.648438 207.351562 256.035156 207.679688 C 255.417969 208.007812 254.785156 208.308594 254.140625 208.574219 C 253.496094 208.84375 252.839844 209.078125 252.171875 209.28125 C 251.5 209.484375 250.824219 209.652344 250.140625 209.789062 C 249.453125 209.925781 248.761719 210.027344 248.066406 210.09375 C 247.371094 210.164062 246.675781 210.195312 245.976562 210.195312 C 245.277344 210.195312 244.582031 210.160156 243.886719 210.09375 C 243.191406 210.023438 242.5 209.921875 241.816406 209.785156 C 241.128906 209.648438 240.453125 209.476562 239.785156 209.273438 C 239.117188 209.070312 238.460938 208.835938 237.8125 208.570312 C 237.167969 208.300781 236.539062 208.003906 235.921875 207.671875 C 235.304688 207.34375 234.707031 206.984375 234.128906 206.59375 C 233.546875 206.207031 232.984375 205.789062 232.445312 205.347656 C 231.90625 204.902344 231.390625 204.433594 230.894531 203.941406 C 224.636719 197.679688 223.085938 188.460938 226.253906 180.75 L 197.488281 151.984375 L 197.488281 227.679688 C 199.589844 228.71875 201.472656 230.0625 203.140625 231.714844 C 203.632812 232.207031 204.101562 232.722656 204.546875 233.265625 C 204.988281 233.804688 205.40625 234.363281 205.792969 234.945312 C 206.179688 235.523438 206.539062 236.125 206.867188 236.738281 C 207.199219 237.355469 207.496094 237.984375 207.761719 238.632812 C 208.03125 239.277344 208.265625 239.933594 208.46875 240.601562 C 208.671875 241.269531 208.839844 241.945312 208.976562 242.632812 C 209.113281 243.316406 209.214844 244.007812 209.285156 244.699219 C 209.351562 245.394531 209.386719 246.09375 209.386719 246.789062 C 209.386719 247.488281 209.351562 248.1875 209.285156 248.882812 C 209.214844 249.574219 209.113281 250.265625 208.976562 250.949219 C 208.839844 251.636719 208.671875 252.3125 208.46875 252.980469 C 208.265625 253.648438 208.03125 254.304688 207.761719 254.949219 C 207.496094 255.597656 207.199219 256.226562 206.867188 256.84375 C 206.539062 257.457031 206.179688 258.058594 205.792969 258.636719 C 205.40625 259.21875 204.988281 259.777344 204.546875 260.316406 C 204.101562 260.859375 203.632812 261.375 203.140625 261.867188 C 202.648438 262.363281 202.128906 262.832031 201.589844 263.273438 C 201.050781 263.71875 200.488281 264.132812 199.910156 264.519531 C 199.328125 264.910156 198.730469 265.265625 198.113281 265.597656 C 197.5 265.925781 196.867188 266.222656 196.222656 266.492188 C 195.578125 266.757812 194.921875 266.992188 194.253906 267.195312 C 193.585938 267.398438 192.90625 267.566406 192.222656 267.703125 C 191.539062 267.839844 190.847656 267.941406 190.152344 268.011719 C 189.457031 268.078125 188.761719 268.113281 188.0625 268.113281 C 187.363281 268.113281 186.667969 268.078125 185.972656 268.011719 C 185.277344 267.941406 184.585938 267.839844 183.902344 267.703125 C 183.21875 267.566406 182.542969 267.398438 181.875 267.195312 C 181.203125 266.992188 180.546875 266.757812 179.902344 266.492188 C 179.257812 266.222656 178.628906 265.925781 178.011719 265.597656 C 177.394531 265.265625 176.796875 264.910156 176.214844 264.519531 C 175.636719 264.132812 175.074219 263.71875 174.535156 263.273438 C 173.996094 262.832031 173.480469 262.363281 172.984375 261.867188 C 172.492188 261.375 172.023438 260.859375 171.578125 260.320312 C 171.132812 259.78125 170.71875 259.21875 170.332031 258.640625 C 169.941406 258.058594 169.582031 257.460938 169.253906 256.84375 C 168.921875 256.226562 168.625 255.597656 168.355469 254.953125 C 168.089844 254.308594 167.855469 253.652344 167.652344 252.980469 C 167.449219 252.3125 167.277344 251.636719 167.140625 250.953125 C 167.003906 250.265625 166.902344 249.578125 166.835938 248.882812 C 166.765625 248.1875 166.730469 247.488281 166.730469 246.789062 C 166.730469 246.09375 166.765625 245.394531 166.835938 244.699219 C 166.902344 244.003906 167.003906 243.316406 167.140625 242.628906 C 167.277344 241.945312 167.449219 241.269531 167.652344 240.601562 C 167.855469 239.929688 168.089844 239.273438 168.355469 238.628906 C 168.625 237.984375 168.921875 237.355469 169.253906 236.738281 C 169.582031 236.121094 169.941406 235.523438 170.332031 234.941406 C 170.71875 234.363281 171.132812 233.800781 171.578125 233.261719 C 172.023438 232.722656 172.492188 232.207031 172.984375 231.714844 C 175.046875 229.660156 177.332031 228.105469 179.96875 227.0625 L 179.96875 150.664062 C 177.429688 149.621094 175.046875 148.082031 172.984375 146.011719 C 172.242188 145.269531 171.554688 144.472656 170.929688 143.628906 C 170.300781 142.785156 169.742188 141.898438 169.246094 140.96875 C 168.75 140.042969 168.324219 139.082031 167.972656 138.089844 C 167.621094 137.101562 167.339844 136.089844 167.136719 135.054688 C 166.933594 134.023438 166.808594 132.980469 166.757812 131.929688 C 166.710938 130.878906 166.738281 129.832031 166.84375 128.785156 C 166.953125 127.738281 167.136719 126.703125 167.394531 125.683594 C 167.652344 124.664062 167.988281 123.671875 168.394531 122.699219 L 136.828125 91.152344 L 53.527344 174.367188 C 53.113281 174.78125 52.71875 175.21875 52.347656 175.671875 C 51.972656 176.125 51.625 176.59375 51.296875 177.082031 C 50.972656 177.570312 50.671875 178.074219 50.394531 178.589844 C 50.117188 179.109375 49.867188 179.640625 49.640625 180.179688 C 49.414062 180.722656 49.21875 181.277344 49.046875 181.835938 C 48.878906 182.398438 48.734375 182.96875 48.621094 183.542969 C 48.503906 184.121094 48.417969 184.699219 48.363281 185.285156 C 48.304688 185.867188 48.273438 186.453125 48.273438 187.042969 C 48.273438 187.628906 48.304688 188.214844 48.363281 188.796875 C 48.417969 189.382812 48.503906 189.960938 48.621094 190.539062 C 48.734375 191.113281 48.878906 191.683594 49.046875 192.246094 C 49.21875 192.804688 49.414062 193.359375 49.640625 193.902344 C 49.867188 194.441406 50.117188 194.972656 50.394531 195.492188 C 50.671875 196.007812 50.972656 196.511719 51.296875 197 C 51.625 197.488281 51.972656 197.957031 52.347656 198.410156 C 52.71875 198.867188 53.113281 199.300781 53.527344 199.714844 L 175.019531 321.1875 C 175.433594 321.601562 175.867188 321.996094 176.324219 322.371094 C 176.777344 322.742188 177.246094 323.089844 177.734375 323.417969 C 178.222656 323.742188 178.726562 324.042969 179.242188 324.320312 C 179.761719 324.597656 180.289062 324.847656 180.832031 325.074219 C 181.375 325.296875 181.925781 325.496094 182.488281 325.664062 C 183.050781 325.835938 183.617188 325.980469 184.191406 326.09375 C 184.769531 326.207031 185.347656 326.292969 185.933594 326.351562 C 186.515625 326.410156 187.101562 326.4375 187.6875 326.4375 C 188.277344 326.4375 188.859375 326.410156 189.445312 326.351562 C 190.027344 326.292969 190.609375 326.207031 191.183594 326.09375 C 191.761719 325.980469 192.328125 325.835938 192.890625 325.664062 C 193.453125 325.496094 194.003906 325.296875 194.546875 325.074219 C 195.089844 324.847656 195.617188 324.597656 196.136719 324.320312 C 196.652344 324.042969 197.15625 323.742188 197.644531 323.417969 C 198.132812 323.089844 198.601562 322.742188 199.054688 322.371094 C 199.507812 321.996094 199.941406 321.601562 200.359375 321.1875 L 321.285156 200.453125 C 321.699219 200.039062 322.09375 199.605469 322.464844 199.152344 C 322.839844 198.695312 323.1875 198.226562 323.515625 197.738281 C 323.839844 197.25 324.140625 196.746094 324.417969 196.230469 C 324.695312 195.710938 324.945312 195.183594 325.171875 194.640625 C 325.398438 194.097656 325.59375 193.546875 325.765625 192.984375 C 325.9375 192.421875 326.078125 191.851562 326.191406 191.277344 C 326.308594 190.703125 326.394531 190.121094 326.453125 189.539062 C 326.507812 188.953125 326.539062 188.367188 326.539062 187.78125 C 326.539062 187.191406 326.507812 186.609375 326.453125 186.023438 C 326.394531 185.4375 326.308594 184.859375 326.191406 184.28125 C 326.078125 183.707031 325.9375 183.136719 325.765625 182.578125 C 325.59375 182.015625 325.398438 181.464844 325.171875 180.921875 C 324.945312 180.378906 324.695312 179.847656 324.417969 179.332031 C 324.140625 178.8125 323.839844 178.308594 323.515625 177.820312 C 323.1875 177.335938 322.839844 176.863281 322.464844 176.410156 C 322.09375 175.957031 321.699219 175.523438 321.285156 175.105469 " fill-opacity="1" fill-rule="nonzero"/></g></svg>