<svg xmlns="http://www.w3.org/2000/svg" xmlns:xlink="http://www.w3.org/1999/xlink" width="500" zoomAndPan="magnify" viewBox="0 0 375 374.999991" height="500" preserveAspectRatio="xMidYMid meet" version="1.0"><path fill="#000000" d="M 169.535156 59.816406 C 108.472656 66.585938 58.710938 115.863281 51.34375 176.839844 C 51.105469 178.753906 50.90625 180.675781 50.75 182.597656 C 50.597656 184.519531 50.480469 186.445312 50.40625 188.371094 C 50.335938 190.300781 50.300781 192.226562 50.3125 194.15625 C 50.320312 196.085938 50.371094 198.011719 50.460938 199.941406 C 50.554688 201.867188 50.6875 203.792969 50.859375 205.710938 C 51.035156 207.632812 51.25 209.550781 51.507812 211.460938 C 51.761719 213.375 52.058594 215.277344 52.398438 217.179688 C 52.734375 219.078125 53.113281 220.96875 53.535156 222.851562 C 53.953125 224.734375 54.410156 226.609375 54.910156 228.472656 C 55.410156 230.335938 55.949219 232.1875 56.527344 234.027344 C 57.105469 235.867188 57.722656 237.691406 58.382812 239.507812 C 59.039062 241.320312 59.734375 243.117188 60.46875 244.902344 C 61.199219 246.6875 61.972656 248.453125 62.78125 250.203125 C 63.59375 251.957031 64.4375 253.6875 65.324219 255.402344 C 66.207031 257.117188 67.128906 258.8125 68.082031 260.488281 C 69.039062 262.164062 70.03125 263.816406 71.058594 265.449219 C 72.085938 267.082031 73.148438 268.691406 74.246094 270.277344 C 75.34375 271.863281 76.472656 273.425781 77.636719 274.964844 C 78.800781 276.503906 79.996094 278.019531 81.222656 279.503906 C 82.449219 280.992188 83.710938 282.453125 85 283.886719 C 86.292969 285.320312 87.613281 286.722656 88.964844 288.101562 C 90.316406 289.476562 91.695312 290.824219 93.105469 292.144531 C 94.511719 293.460938 95.949219 294.746094 97.414062 296.003906 C 98.875 297.257812 100.367188 298.484375 101.882812 299.675781 C 103.398438 300.867188 104.941406 302.027344 106.507812 303.152344 C 108.074219 304.277344 109.660156 305.371094 111.273438 306.429688 C 112.886719 307.488281 114.523438 308.511719 116.179688 309.496094 C 117.835938 310.484375 119.511719 311.4375 121.210938 312.355469 C 122.90625 313.269531 124.625 314.148438 126.359375 314.992188 C 128.09375 315.832031 129.847656 316.640625 131.617188 317.40625 C 133.386719 318.171875 135.171875 318.902344 136.972656 319.59375 C 138.773438 320.285156 140.585938 320.9375 142.414062 321.550781 C 149.15625 322.625 151.308594 318.449219 151.308594 314.820312 L 151.308594 292.054688 C 114.007812 300.15625 106.070312 274.015625 106.070312 274.015625 C 99.890625 258.390625 91.121094 254.214844 91.121094 254.214844 C 78.863281 245.863281 92.074219 246.140625 92.074219 246.140625 C 105.535156 247.09375 112.675781 260.011719 112.675781 260.011719 C 124.390625 280.480469 144.179688 274.417969 151.851562 271.183594 C 153.0625 262.433594 156.621094 256.503906 160.335938 253.136719 C 130.394531 249.773438 99.0625 238.1875 99.0625 186.890625 C 99.0625 171.941406 104.179688 159.957031 112.933594 150.394531 C 111.589844 147.03125 106.871094 133.027344 114.277344 114.84375 C 114.277344 114.84375 125.589844 111.203125 151.308594 128.582031 C 156.796875 127.105469 162.359375 125.992188 167.992188 125.25 C 173.625 124.503906 179.285156 124.128906 184.96875 124.128906 C 190.652344 124.128906 196.308594 124.503906 201.945312 125.25 C 207.578125 125.992188 213.140625 127.105469 218.628906 128.582031 C 244.363281 111.203125 255.660156 114.84375 255.660156 114.84375 C 263.058594 133.027344 258.347656 147.03125 257.003906 150.394531 C 265.757812 159.929688 270.875 171.941406 270.875 186.890625 C 270.875 238.324219 239.359375 249.636719 209.34375 253.003906 C 214.183594 257.179688 218.628906 265.398438 218.628906 277.914062 L 218.628906 314.820312 C 218.628906 318.449219 220.78125 322.761719 227.65625 321.550781 C 229.605469 320.894531 231.542969 320.195312 233.460938 319.453125 C 235.382812 318.710938 237.285156 317.925781 239.167969 317.09375 C 241.050781 316.265625 242.914062 315.390625 244.757812 314.476562 C 246.601562 313.5625 248.425781 312.605469 250.226562 311.605469 C 252.023438 310.605469 253.800781 309.566406 255.554688 308.488281 C 257.304688 307.40625 259.03125 306.285156 260.734375 305.125 C 262.433594 303.96875 264.109375 302.769531 265.753906 301.535156 C 267.402344 300.296875 269.019531 299.023438 270.605469 297.714844 C 272.195312 296.402344 273.75 295.058594 275.277344 293.675781 C 276.804688 292.292969 278.296875 290.878906 279.757812 289.429688 C 281.21875 287.980469 282.648438 286.496094 284.039062 284.980469 C 285.433594 283.464844 286.792969 281.917969 288.113281 280.339844 C 289.4375 278.761719 290.722656 277.15625 291.972656 275.519531 C 293.222656 273.882812 294.429688 272.21875 295.605469 270.527344 C 296.777344 268.835938 297.910156 267.117188 299.003906 265.371094 C 300.097656 263.628906 301.152344 261.859375 302.164062 260.070312 C 303.175781 258.277344 304.148438 256.460938 305.078125 254.625 C 306.007812 252.789062 306.894531 250.929688 307.742188 249.054688 C 308.585938 247.175781 309.386719 245.28125 310.144531 243.367188 C 310.902344 241.453125 311.617188 239.519531 312.285156 237.574219 C 312.953125 235.628906 313.578125 233.667969 314.160156 231.691406 C 314.738281 229.714844 315.273438 227.726562 315.761719 225.726562 C 316.25 223.726562 316.691406 221.71875 317.089844 219.699219 C 317.484375 217.675781 317.835938 215.648438 318.136719 213.613281 C 318.441406 211.578125 318.699219 209.535156 318.910156 207.484375 C 319.117188 205.4375 319.28125 203.386719 319.398438 201.332031 C 319.511719 199.277344 319.582031 197.21875 319.601562 195.160156 C 319.625 193.101562 319.601562 191.042969 319.527344 188.984375 C 319.453125 186.929688 319.335938 184.875 319.167969 182.820312 C 319 180.769531 318.789062 178.722656 318.527344 176.679688 C 318.265625 174.636719 317.960938 172.601562 317.605469 170.574219 C 317.25 168.546875 316.851562 166.527344 316.40625 164.515625 C 315.960938 162.507812 315.46875 160.507812 314.929688 158.523438 C 314.390625 156.535156 313.808594 154.5625 313.179688 152.601562 C 312.550781 150.640625 311.878906 148.695312 311.160156 146.765625 C 310.445312 144.835938 309.683594 142.921875 308.878906 141.027344 C 308.074219 139.132812 307.226562 137.257812 306.332031 135.402344 C 305.441406 133.546875 304.511719 131.710938 303.535156 129.898438 C 302.558594 128.085938 301.542969 126.296875 300.488281 124.527344 C 299.429688 122.761719 298.332031 121.019531 297.195312 119.304688 C 296.058594 117.585938 294.882812 115.898438 293.667969 114.234375 C 292.457031 112.574219 291.203125 110.9375 289.914062 109.335938 C 288.625 107.730469 287.300781 106.152344 285.941406 104.609375 C 284.578125 103.066406 283.183594 101.554688 281.753906 100.074219 C 280.320312 98.59375 278.859375 97.144531 277.359375 95.730469 C 275.863281 94.316406 274.335938 92.941406 272.777344 91.597656 C 271.214844 90.253906 269.625 88.945312 268.007812 87.675781 C 266.386719 86.40625 264.738281 85.171875 263.0625 83.976562 C 261.386719 82.78125 259.683594 81.625 257.953125 80.507812 C 256.226562 79.390625 254.472656 78.316406 252.691406 77.277344 C 250.914062 76.242188 249.113281 75.246094 247.289062 74.292969 C 245.464844 73.339844 243.617188 72.425781 241.753906 71.558594 C 239.886719 70.6875 238.003906 69.863281 236.097656 69.078125 C 234.195312 68.296875 232.273438 67.558594 230.335938 66.863281 C 228.398438 66.167969 226.445312 65.515625 224.476562 64.910156 C 222.511719 64.304688 220.53125 63.746094 218.539062 63.230469 C 216.542969 62.714844 214.539062 62.246094 212.527344 61.824219 C 210.511719 61.398438 208.488281 61.023438 206.457031 60.691406 C 204.425781 60.363281 202.386719 60.078125 200.339844 59.84375 C 198.296875 59.605469 196.246094 59.414062 194.191406 59.273438 C 192.140625 59.128906 190.082031 59.035156 188.027344 58.984375 C 185.96875 58.9375 183.910156 58.933594 181.851562 58.980469 C 179.792969 59.027344 177.738281 59.117188 175.683594 59.257812 C 173.628906 59.398438 171.582031 59.585938 169.535156 59.816406 Z M 169.535156 59.816406 " fill-opacity="1" fill-rule="nonzero"/></svg>