<svg xmlns="http://www.w3.org/2000/svg" xmlns:xlink="http://www.w3.org/1999/xlink" width="500" zoomAndPan="magnify" viewBox="0 0 375 374.999991" height="500" preserveAspectRatio="xMidYMid meet" version="1.0"><defs><clipPath id="d413f7d1ba"><path d="M 64 47.84375 L 310 47.84375 L 310 326.84375 L 64 326.84375 Z M 64 47.84375 " clip-rule="nonzero"/></clipPath></defs><g clip-path="url(#d413f7d1ba)"><path fill="#df34a6" d="M 101.496094 108.5 C 89.757812 101.621094 74.753906 105.6875 67.972656 117.59375 C 66.820312 119.648438 65.945312 121.871094 65.410156 124.171875 C 62.242188 137.550781 70.351562 151.003906 83.511719 154.210938 L 83.5 220.460938 C 78.945312 221.589844 74.789062 224.019531 71.550781 227.472656 C 62.207031 237.410156 62.570312 253.164062 72.355469 262.648438 C 82.148438 272.148438 97.664062 271.761719 107.007812 261.835938 L 163.535156 294.929688 C 162.859375 297.246094 162.523438 299.628906 162.523438 302.011719 C 162.535156 315.742188 173.507812 326.855469 187.03125 326.84375 C 189.640625 326.84375 192.214844 326.410156 194.707031 325.585938 C 207.566406 321.273438 214.554688 307.195312 210.292969 294.128906 L 266.460938 261.207031 C 268.195312 263.183594 270.246094 264.882812 272.484375 266.195312 C 284.238281 273.078125 299.226562 268.996094 306.007812 257.105469 C 307.207031 255 308.117188 252.722656 308.664062 250.351562 C 311.796875 237.027344 303.691406 223.660156 290.574219 220.484375 L 290.574219 154.234375 C 292.832031 153.675781 294.976562 152.804688 296.96875 151.640625 C 308.746094 144.792969 312.832031 129.554688 306.078125 117.605469 C 304.902344 115.558594 303.457031 113.6875 301.757812 112.058594 C 291.925781 102.574219 276.375 102.96875 267.03125 112.953125 L 210.515625 79.824219 C 211.191406 77.507812 211.550781 75.078125 211.539062 72.648438 C 211.527344 58.933594 200.554688 47.832031 187.03125 47.84375 C 184.667969 47.84375 182.300781 48.179688 180.042969 48.863281 C 167.101562 52.757812 159.691406 66.582031 163.535156 79.753906 L 106.984375 112.882812 C 105.375 111.152344 103.523438 109.675781 101.496094 108.5 Z M 205.15625 285.234375 C 200.660156 280.25 194.207031 277.121094 187.03125 277.121094 C 180.089844 277.121094 173.832031 280.015625 169.394531 284.714844 L 112.832031 251.558594 L 113.078125 250.59375 L 260.988281 250.59375 C 261.113281 251.152344 261.253906 251.699219 261.417969 252.246094 Z M 204.621094 90.019531 L 261.265625 123.242188 C 261.183594 123.507812 261.113281 123.800781 261.046875 124.078125 C 257.796875 137.402344 265.773438 150.875 278.890625 154.164062 L 278.890625 220.507812 C 278.585938 220.589844 278.25 220.671875 277.945312 220.777344 L 203.957031 90.691406 C 204.199219 90.472656 204.410156 90.261719 204.621094 90.019531 Z M 180.21875 96.597656 C 184.667969 97.898438 189.394531 97.898438 193.867188 96.597656 L 267.871094 226.632812 C 264.480469 229.925781 262.082031 234.144531 260.964844 238.769531 L 113.109375 238.769531 C 111.992188 234.167969 109.605469 229.960938 106.238281 226.667969 Z M 112.761719 123.160156 L 169.40625 90.007812 L 170.09375 90.703125 L 96.128906 220.777344 L 95.160156 220.507812 L 95.160156 154.152344 C 95.453125 154.070312 95.730469 154 96.035156 153.910156 C 109.023438 150.105469 116.511719 136.355469 112.761719 123.160156 Z M 112.761719 123.160156 " fill-opacity="1" fill-rule="nonzero"/></g></svg>