<svg xmlns="http://www.w3.org/2000/svg" xmlns:xlink="http://www.w3.org/1999/xlink" width="500" zoomAndPan="magnify" viewBox="0 0 375 374.999991" height="500" preserveAspectRatio="xMidYMid meet" version="1.0"><defs><clipPath id="9a594232f4"><path d="M 86.367188 65.101562 L 288.867188 65.101562 L 288.867188 309.601562 L 86.367188 309.601562 Z M 86.367188 65.101562 " clip-rule="nonzero"/></clipPath></defs><g clip-path="url(#9a594232f4)"><path fill="#000000" d="M 113.023438 65.101562 C 98.371094 65.101562 86.382812 77.058594 86.382812 91.675781 L 86.382812 283.023438 C 86.382812 297.640625 98.371094 309.601562 113.023438 309.601562 L 262.210938 309.601562 C 276.863281 309.601562 288.851562 297.640625 288.851562 283.023438 L 288.851562 91.675781 C 288.851562 77.058594 276.863281 65.101562 262.210938 65.101562 Z M 113.023438 75.730469 L 262.210938 75.730469 C 271.097656 75.730469 278.195312 82.8125 278.195312 91.675781 L 278.195312 283.023438 C 278.195312 291.890625 271.097656 298.96875 262.210938 298.96875 L 113.023438 298.96875 C 104.136719 298.96875 97.039062 291.890625 97.039062 283.023438 L 97.039062 91.675781 C 97.039062 82.8125 104.136719 75.730469 113.023438 75.730469 Z M 163.140625 102.308594 L 136.835938 102.472656 C 136.835938 102.472656 136.855469 188.742188 137 188.347656 C 217.652344 157.039062 211.59375 179.210938 211.59375 179.210938 L 211.59375 272.0625 L 236.902344 272.0625 L 236.902344 179.542969 C 236.902344 128.570312 163.140625 157.617188 163.140625 157.617188 Z M 217.753906 102.472656 C 217.753906 102.472656 208.660156 123.421875 198.605469 135.695312 L 226.578125 135.695312 C 241.75 116.09375 246.726562 102.472656 246.726562 102.472656 Z M 137.335938 219.074219 L 137.335938 271.894531 L 163.808594 245.484375 Z M 137.335938 219.074219 " fill-opacity="1" fill-rule="nonzero"/></g></svg>