<svg xmlns="http://www.w3.org/2000/svg" xmlns:xlink="http://www.w3.org/1999/xlink" width="500" zoomAndPan="magnify" viewBox="0 0 375 374.999991" height="500" preserveAspectRatio="xMidYMid meet" version="1.0"><defs><clipPath id="6c1414e405"><path d="M 65.585938 49 L 309.335938 49 L 309.335938 326 L 65.585938 326 Z M 65.585938 49 " clip-rule="nonzero"/></clipPath></defs><g clip-path="url(#6c1414e405)"><path fill="#e44d26" d="M 87.949219 298.230469 L 65.804688 49.484375 L 309.117188 49.484375 L 286.953125 298.183594 L 187.3125 325.855469 Z M 87.949219 298.230469 " fill-opacity="1" fill-rule="nonzero"/></g><path fill="#f16529" d="M 187.460938 304.714844 L 267.980469 282.363281 L 286.917969 69.820312 L 187.460938 69.820312 Z M 187.460938 304.714844 " fill-opacity="1" fill-rule="nonzero"/><path fill="#ebebeb" d="M 187.460938 162.085938 L 147.152344 162.085938 L 144.371094 130.84375 L 187.460938 130.84375 L 187.460938 100.339844 L 111.082031 100.339844 L 111.808594 108.515625 L 119.292969 192.589844 L 187.460938 192.589844 Z M 187.460938 241.308594 L 187.324219 241.34375 L 153.40625 232.167969 L 151.234375 207.835938 L 120.660156 207.835938 L 124.925781 255.738281 L 187.324219 273.082031 L 187.460938 273.046875 Z M 187.460938 241.308594 " fill-opacity="1" fill-rule="nonzero"/><path fill="#ffffff" d="M 187.359375 162.085938 L 187.359375 192.589844 L 224.863281 192.589844 L 221.324219 232.15625 L 187.347656 241.332031 L 187.347656 273.070312 L 249.792969 255.738281 L 250.25 250.582031 L 257.414062 170.261719 L 258.160156 162.074219 L 249.953125 162.074219 Z M 187.359375 100.339844 L 187.359375 130.84375 L 260.933594 130.84375 L 261.542969 123.980469 L 262.933594 108.515625 L 263.65625 100.328125 Z M 187.359375 100.339844 " fill-opacity="1" fill-rule="nonzero"/></svg>