<svg xmlns="http://www.w3.org/2000/svg" xmlns:xlink="http://www.w3.org/1999/xlink" width="500" zoomAndPan="magnify" viewBox="0 0 375 374.999991" height="500" preserveAspectRatio="xMidYMid meet" version="1.0"><defs><clipPath id="4939ce3eab"><path d="M 56.339844 56.339844 L 318.839844 56.339844 L 318.839844 318.839844 L 56.339844 318.839844 Z M 56.339844 56.339844 " clip-rule="nonzero"/></clipPath></defs><g clip-path="url(#4939ce3eab)"><path fill="#ffd600" d="M 56.339844 56.339844 L 318.839844 56.339844 L 318.839844 318.839844 L 56.339844 318.839844 Z M 56.339844 56.339844 " fill-opacity="1" fill-rule="nonzero"/></g><path fill="#000001" d="M 227.96875 252.828125 C 233.015625 261.023438 238.5 268.875 250.117188 268.875 C 259.871094 268.875 264.992188 264.027344 264.992188 257.320312 C 264.992188 249.292969 259.695312 246.441406 248.964844 241.765625 L 243.078125 239.257812 C 226.097656 232.054688 214.800781 223.027344 214.800781 203.960938 C 214.800781 186.386719 228.253906 173.011719 249.277344 173.011719 C 264.246094 173.011719 275 178.199219 282.761719 191.773438 L 264.429688 203.492188 C 260.398438 196.289062 256.035156 193.453125 249.277344 193.453125 C 242.378906 193.453125 238.011719 197.804688 238.011719 203.492188 C 238.011719 210.523438 242.386719 213.367188 252.484375 217.71875 L 258.371094 220.226562 C 278.386719 228.75 289.671875 237.457031 289.671875 257.027344 C 289.671875 278.117188 273.019531 289.671875 250.664062 289.671875 C 228.792969 289.671875 216.375 278.699219 209.464844 265.113281 Z M 143.488281 253.425781 C 147.179688 260.03125 152.785156 265.113281 160.851562 265.113281 C 168.566406 265.113281 173.007812 262.066406 173.007812 250.21875 L 173.007812 173.007812 L 197.308594 173.007812 L 197.308594 253.949219 C 197.308594 278.5 183.070312 289.671875 162.273438 289.671875 C 143.480469 289.671875 129.917969 276.941406 124.390625 265.113281 Z M 143.488281 253.425781 " fill-opacity="1" fill-rule="nonzero"/></svg>