<svg xmlns="http://www.w3.org/2000/svg" xmlns:xlink="http://www.w3.org/1999/xlink" width="500" zoomAndPan="magnify" viewBox="0 0 375 374.999991" height="500" preserveAspectRatio="xMidYMid meet" version="1.0"><defs><clipPath id="47eda585d0"><path d="M 63 59.535156 L 315 59.535156 L 315 315.285156 L 63 315.285156 Z M 63 59.535156 " clip-rule="nonzero"/></clipPath></defs><path fill="#99415b" d="M 233.414062 180.769531 C 233.414062 180.75 233.414062 180.71875 233.414062 180.675781 C 233.414062 165.777344 243.695312 153.246094 257.601562 149.730469 L 257.828125 149.675781 L 257.828125 149.65625 C 258.457031 149.527344 258.976562 149.398438 259.628906 149.292969 L 260 149.292969 C 260.535156 149.144531 261.035156 149.144531 261.554688 149.015625 L 262.066406 149.015625 C 262.589844 149.015625 262.972656 148.886719 263.476562 148.886719 L 268.484375 148.886719 C 268.996094 148.886719 269.390625 149.015625 269.773438 149.015625 C 270.027344 149.015625 270.144531 149.015625 270.421875 149.144531 C 270.921875 149.273438 271.308594 149.273438 271.828125 149.398438 C 271.957031 149.398438 272.085938 149.398438 272.351562 149.527344 L 274.140625 149.890625 L 274.269531 149.890625 C 274.792969 150.039062 275.304688 150.167969 275.804688 150.421875 C 275.933594 150.421875 276.058594 150.550781 276.316406 150.550781 C 276.710938 150.679688 277.222656 150.804688 277.617188 151.039062 C 277.742188 151.039062 277.871094 151.167969 277.988281 151.167969 C 278.511719 151.425781 279.023438 151.550781 279.542969 151.808594 L 279.671875 151.808594 C 280.300781 152.042969 280.855469 152.363281 281.355469 152.722656 L 281.335938 152.703125 L 281.460938 152.703125 C 281.984375 152.957031 282.496094 153.332031 283.019531 153.585938 C 283.144531 153.585938 283.144531 153.714844 283.253906 153.714844 C 283.773438 153.972656 284.179688 154.355469 284.679688 154.609375 L 284.808594 154.738281 C 286.34375 155.878906 287.769531 157.15625 289.175781 158.425781 L 289.304688 158.554688 C 294.792969 164.296875 298.183594 172.054688 298.183594 180.621094 C 298.183594 180.664062 298.183594 180.695312 298.183594 180.75 C 297.574219 198.035156 283.316406 211.8125 265.796875 211.8125 C 248.277344 211.8125 234.019531 198.035156 233.414062 180.804688 Z M 233.414062 180.769531 " fill-opacity="1" fill-rule="nonzero"/><path fill="#99415b" d="M 179.121094 144.433594 L 179.375 144.371094 L 179.375 144.347656 C 180.109375 144.199219 180.707031 144.050781 181.453125 143.921875 L 181.878906 143.921875 C 182.496094 143.75 183.082031 143.75 183.679688 143.601562 L 184.277344 143.601562 C 184.875 143.601562 185.332031 143.453125 185.90625 143.453125 L 191.703125 143.453125 C 192.300781 143.453125 192.75 143.601562 193.195312 143.601562 C 193.496094 143.601562 193.621094 143.601562 193.941406 143.75 C 194.519531 143.902344 194.964844 143.902344 195.5625 144.050781 C 195.710938 144.050781 195.859375 144.050781 196.160156 144.199219 L 198.226562 144.625 L 198.375 144.625 C 198.917969 144.773438 199.460938 144.933594 199.996094 145.191406 L 226.730469 94.125 L 253.339844 145.46875 C 254.332031 145.125 255.289062 144.699219 256.3125 144.445312 L 256.570312 144.378906 L 256.570312 144.347656 C 257.304688 144.199219 257.890625 144.050781 258.648438 143.921875 L 259.074219 143.921875 C 259.691406 143.75 260.277344 143.75 260.875 143.601562 L 261.472656 143.601562 C 262.066406 143.601562 262.527344 143.453125 263.101562 143.453125 L 268.898438 143.453125 C 269.496094 143.453125 269.941406 143.601562 270.402344 143.601562 C 270.699219 143.601562 270.828125 143.601562 271.148438 143.75 C 271.722656 143.902344 272.171875 143.902344 272.765625 144.050781 C 272.917969 144.050781 273.066406 144.050781 273.363281 144.199219 L 275.429688 144.625 L 275.496094 144.625 L 306.226562 67.527344 L 147.160156 67.527344 L 177.9375 144.839844 C 178.332031 144.722656 178.703125 144.53125 179.121094 144.433594 Z M 179.121094 144.433594 " fill-opacity="1" fill-rule="nonzero"/><path fill="#99415b" d="M 265.796875 216.246094 C 245.539062 216.246094 229.054688 200.316406 228.351562 180.386719 L 228.351562 180.355469 L 225.984375 180.761719 C 225.046875 200.539062 208.703125 216.246094 188.59375 216.246094 C 180.71875 216.246094 173.449219 213.785156 167.417969 209.671875 C 164.394531 213.59375 161.21875 217.214844 157.742188 220.464844 L 157.699219 220.507812 C 149.996094 227.796875 140.90625 233.722656 130.890625 237.847656 L 130.3125 238.058594 C 121.351562 232.058594 117.472656 221.476562 120.980469 211.996094 L 87.453125 203.628906 C 86.941406 204.664062 86.410156 205.707031 85.886719 206.816406 C 80.867188 217.035156 75.199219 228.585938 73.027344 241.542969 C 68.699219 267.460938 75.785156 285.597656 92.890625 297.371094 C 101.671875 303.574219 112.601562 307.292969 124.421875 307.292969 C 124.453125 307.292969 124.484375 307.292969 124.515625 307.292969 C 144.144531 307.292969 164.074219 297.519531 183.339844 288.039062 C 197.074219 281.300781 211.257812 276.933594 225.21875 273.523438 C 230.375 272.265625 235.746094 271.53125 241.417969 270.710938 C 252.914062 269.078125 264.785156 267.386719 275.453125 261.226562 C 287.578125 254.246094 296.242188 242.472656 298.851562 228.585938 L 298.894531 228.289062 C 300.527344 219.039062 299.171875 209.800781 295.65625 201.371094 C 288.816406 210.375 278.03125 216.246094 265.796875 216.246094 Z M 265.796875 216.246094 " fill-opacity="1" fill-rule="nonzero"/><path fill="#99415b" d="M 111.003906 157.082031 C 125.699219 157.082031 137.644531 169.039062 137.644531 183.722656 C 137.644531 198.40625 125.699219 210.363281 111.015625 210.363281 C 96.332031 210.363281 84.363281 198.417969 84.363281 183.734375 C 84.363281 169.058594 96.320312 157.082031 111.003906 157.082031 Z M 111.003906 157.082031 " fill-opacity="1" fill-rule="nonzero"/><path fill="#99415b" d="M 156.207031 180.261719 C 156.207031 180.238281 156.207031 180.207031 156.207031 180.164062 C 156.207031 165.265625 166.492188 152.734375 180.398438 149.21875 L 180.621094 149.164062 L 180.621094 149.144531 C 181.25 149.015625 181.773438 148.886719 182.421875 148.78125 L 182.796875 148.78125 C 183.328125 148.632812 183.828125 148.632812 184.351562 148.503906 L 184.863281 148.503906 C 185.386719 148.503906 185.769531 148.375 186.269531 148.375 L 191.277344 148.375 C 191.789062 148.375 192.183594 148.503906 192.566406 148.503906 C 192.824219 148.503906 192.941406 148.503906 193.21875 148.632812 C 193.71875 148.761719 194.101562 148.761719 194.625 148.886719 C 194.753906 148.886719 194.878906 148.886719 195.148438 149.015625 L 196.9375 149.378906 L 197.066406 149.378906 C 197.585938 149.527344 198.097656 149.65625 198.597656 149.910156 C 198.726562 149.910156 198.855469 150.039062 199.109375 150.039062 C 199.503906 150.167969 200.015625 150.292969 200.410156 150.527344 C 200.539062 150.527344 200.667969 150.65625 200.785156 150.65625 C 201.304688 150.914062 201.816406 151.039062 202.339844 151.296875 L 202.46875 151.296875 C 203.097656 151.53125 203.652344 151.851562 204.152344 152.210938 L 204.128906 152.191406 L 204.257812 152.191406 C 204.78125 152.445312 205.292969 152.820312 205.8125 153.074219 C 205.941406 153.074219 205.941406 153.203125 206.046875 153.203125 C 206.570312 153.460938 206.976562 153.84375 207.476562 154.097656 L 207.605469 154.226562 C 209.136719 155.367188 210.566406 156.644531 211.972656 157.914062 L 212.101562 158.042969 C 217.589844 163.808594 220.976562 171.566406 220.976562 180.132812 C 220.976562 180.175781 220.976562 180.207031 220.976562 180.261719 C 220.371094 197.542969 206.113281 211.324219 188.59375 211.324219 C 171.074219 211.324219 156.816406 197.542969 156.207031 180.3125 Z M 156.207031 180.261719 " fill-opacity="1" fill-rule="nonzero"/><g clip-path="url(#47eda585d0)"><path fill="#000000" d="M 124.515625 315.285156 C 111.324219 315.285156 98.824219 311.34375 88.285156 303.894531 C 68.210938 290.082031 60.398438 268.632812 65.152344 240.222656 C 67.507812 226.199219 73.398438 214.125 78.609375 203.492188 L 80.070312 200.507812 C 82.03125 196.5625 86.941406 194.730469 90.898438 196.691406 C 94.851562 198.664062 96.566406 203.234375 94.605469 207.175781 L 94.382812 207.625 L 93.101562 210.226562 C 88.242188 220.167969 82.894531 231.113281 80.921875 242.855469 C 77.183594 265.222656 82.4375 280.449219 97.441406 290.777344 C 105.335938 296.382812 114.640625 299.300781 124.421875 299.300781 C 142.378906 299.300781 161.398438 289.933594 179.800781 280.867188 C 192.238281 274.769531 206.070312 269.976562 223.3125 265.765625 C 228.449219 264.507812 233.5625 263.773438 238.988281 262.984375 L 240.265625 262.804688 C 251.007812 261.28125 262.089844 259.714844 271.457031 254.308594 C 281.730469 248.394531 288.847656 238.484375 290.988281 227.117188 C 292.535156 218.292969 291.148438 209.457031 286.992188 201.347656 C 285.714844 198.84375 285.84375 195.859375 287.332031 193.472656 C 289.847656 189.46875 291.117188 184.980469 291.117188 180.152344 C 291.117188 179.992188 291.117188 179.832031 291.128906 179.675781 C 290.882812 168.515625 283.199219 158.777344 272.296875 155.867188 C 270.082031 155.28125 268.121094 153.746094 267.097656 151.710938 C 266.074219 149.664062 265.851562 147.257812 266.691406 145.136719 L 294.441406 75.519531 L 158.949219 75.519531 L 186.769531 145.433594 C 187.601562 147.523438 187.515625 149.867188 186.535156 151.882812 C 185.554688 153.894531 183.765625 155.421875 181.613281 156.058594 C 170.636719 159.308594 163.242188 169.039062 163.230469 180.25 C 163.230469 188.285156 167.25 195.957031 173.984375 200.75 C 175.71875 201.988281 176.882812 203.863281 177.234375 205.953125 C 177.585938 208.050781 177.085938 210.191406 175.835938 211.929688 C 172.035156 217.226562 167.886719 221.9375 163.199219 226.316406 C 154.664062 234.40625 144.804688 240.765625 133.925781 245.242188 C 131.464844 246.265625 128.078125 246.179688 125.859375 244.699219 C 113.839844 236.640625 108.746094 222.054688 113.476562 209.222656 C 115.011719 205.078125 119.648438 202.96875 123.738281 204.492188 C 127.882812 206.027344 129.996094 210.621094 128.46875 214.753906 C 126.703125 219.539062 127.980469 224.792969 131.625 228.746094 C 139.308594 225.113281 146.148438 220.421875 152.203125 214.691406 C 154.417969 212.613281 156.476562 210.480469 158.402344 208.234375 C 151.308594 200.65625 147.246094 190.640625 147.246094 180.21875 C 147.269531 164.796875 155.738281 151.125 169.007812 144.019531 L 139.734375 70.480469 C 138.753906 68.019531 139.050781 65.238281 140.542969 63.042969 C 142.035156 60.847656 144.507812 59.535156 147.160156 59.535156 L 306.226562 59.535156 C 308.882812 59.535156 311.351562 60.847656 312.84375 63.042969 C 314.335938 65.238281 314.636719 68.019531 313.65625 70.488281 L 284.519531 143.601562 C 298.277344 150.65625 307.101562 164.617188 307.132812 180.152344 C 307.132812 180.378906 307.121094 180.601562 307.113281 180.8125 C 307.015625 186.8125 305.640625 192.664062 303.082031 198.003906 C 307.378906 208.148438 308.65625 219.007812 306.78125 229.683594 C 303.710938 246.03125 293.78125 259.914062 279.457031 268.164062 C 267.417969 275.109375 254.214844 276.976562 242.554688 278.628906 L 241.300781 278.808594 C 236.269531 279.535156 231.527344 280.214844 227.125 281.292969 C 211.023438 285.222656 198.238281 289.644531 186.878906 295.21875 C 166.824219 305.078125 146.105469 315.285156 124.515625 315.285156 Z M 124.515625 315.285156 " fill-opacity="1" fill-rule="nonzero"/></g><path fill="#000000" d="M 255.109375 156.828125 C 252.222656 156.828125 249.429688 155.261719 248 152.511719 L 226.699219 111.421875 L 205.367188 152.171875 C 203.320312 156.089844 198.492188 157.605469 194.582031 155.546875 C 190.671875 153.503906 189.15625 148.664062 191.203125 144.765625 L 219.65625 90.417969 C 221.03125 87.773438 223.769531 86.132812 226.742188 86.132812 C 226.742188 86.132812 226.753906 86.132812 226.753906 86.132812 C 229.738281 86.132812 232.464844 87.804688 233.839844 90.449219 L 262.195312 145.167969 C 264.21875 149.089844 262.695312 153.90625 258.773438 155.941406 C 257.601562 156.539062 256.34375 156.828125 255.109375 156.828125 Z M 255.109375 156.828125 " fill-opacity="1" fill-rule="nonzero"/><path fill="#000000" d="M 232.996094 181.710938 L 221.351562 181.710938 C 216.9375 181.710938 213.359375 178.128906 213.359375 173.71875 C 213.359375 169.304688 216.9375 165.726562 221.351562 165.726562 L 232.996094 165.726562 C 237.410156 165.726562 240.988281 169.304688 240.988281 173.71875 C 240.988281 178.128906 237.410156 181.710938 232.996094 181.710938 Z M 232.996094 181.710938 " fill-opacity="1" fill-rule="nonzero"/><path fill="#000000" d="M 188.59375 219.316406 C 166.726562 219.316406 148.984375 202.308594 148.214844 180.601562 C 148.214844 180.503906 148.214844 180.355469 148.214844 180.261719 L 148.214844 180.175781 C 148.214844 161.898438 160.640625 145.988281 178.425781 141.472656 C 179.769531 141.152344 180.378906 141.023438 181.089844 140.894531 C 181.359375 140.851562 181.632812 140.820312 181.910156 140.800781 C 182.125 140.769531 182.339844 140.734375 182.539062 140.703125 C 183.179688 140.542969 183.679688 140.5 184.332031 140.5 C 185.003906 140.4375 185.597656 140.375 186.25 140.375 L 191.269531 140.375 C 191.683594 140.375 192.824219 140.480469 193.238281 140.542969 C 193.984375 140.542969 194.71875 140.691406 195.421875 140.917969 C 195.445312 140.917969 195.476562 140.925781 195.507812 140.925781 C 196.136719 140.980469 196.746094 141.109375 197.34375 141.300781 L 198.121094 141.460938 C 198.503906 141.515625 198.886719 141.589844 199.226562 141.683594 C 199.921875 141.875 200.558594 142.078125 201.167969 142.3125 C 201.328125 142.355469 201.476562 142.398438 201.625 142.453125 C 202.105469 142.601562 202.796875 142.8125 203.574219 143.175781 C 203.808594 143.261719 204.042969 143.367188 204.277344 143.484375 L 204.566406 143.613281 C 204.832031 143.675781 205.101562 143.773438 205.355469 143.859375 C 206.144531 144.167969 206.910156 144.53125 207.625 144.964844 C 207.699219 145 207.785156 145.042969 207.847656 145.082031 C 208.03125 145.167969 208.980469 145.710938 209.148438 145.820312 L 209.148438 145.839844 C 209.339844 145.925781 209.53125 146.019531 209.714844 146.117188 C 210.3125 146.425781 210.84375 146.777344 211.375 147.140625 C 212.121094 147.523438 212.527344 147.875 213.125 148.472656 C 214.082031 149.101562 215.703125 150.539062 217.28125 151.96875 C 225.027344 160.035156 228.96875 169.828125 228.96875 180.144531 C 228.203125 202.285156 210.46875 219.316406 188.59375 219.316406 Z M 185.078125 156.496094 C 184.9375 156.519531 184.800781 156.527344 184.660156 156.550781 C 183.980469 156.742188 183.488281 156.773438 182.773438 156.773438 C 171.660156 159.671875 164.191406 169.21875 164.191406 180.175781 L 164.191406 180.324219 C 164.648438 193.101562 175.359375 203.339844 188.582031 203.339844 C 201.808594 203.339844 212.515625 193.089844 212.984375 179.992188 C 212.984375 173.972656 210.609375 168.089844 206.324219 163.59375 C 205.386719 162.761719 204.171875 161.652344 202.851562 160.683594 C 202.789062 160.640625 202.722656 160.589844 202.671875 160.546875 C 202.46875 160.417969 202.285156 160.3125 202.191406 160.238281 C 201.847656 160.054688 201.496094 159.863281 201.144531 159.652344 C 200.625 159.4375 200.113281 159.171875 199.621094 158.832031 C 199.34375 158.734375 199.078125 158.617188 198.8125 158.488281 C 198.460938 158.363281 198.128906 158.246094 197.800781 158.09375 C 197.511719 158 197.226562 157.882812 196.949219 157.742188 C 196.832031 157.722656 196.722656 157.691406 196.605469 157.65625 C 196.167969 157.550781 195.753906 157.402344 195.339844 157.222656 L 193.546875 156.859375 C 193.335938 156.816406 193.121094 156.761719 192.917969 156.710938 C 192.84375 156.699219 192.757812 156.675781 192.683594 156.65625 C 192.449219 156.625 191.769531 156.507812 191.40625 156.433594 C 191.160156 156.410156 190.925781 156.378906 190.777344 156.359375 L 186.257812 156.378906 C 186.140625 156.421875 185.664062 156.484375 185.078125 156.496094 Z M 192.164062 156.476562 C 192.207031 156.476562 192.25 156.484375 192.289062 156.484375 C 192.25 156.484375 192.207031 156.484375 192.164062 156.476562 Z M 192.164062 156.476562 " fill-opacity="1" fill-rule="nonzero"/><path fill="#000000" d="M 265.796875 219.316406 C 243.929688 219.316406 226.1875 202.308594 225.421875 180.601562 C 225.421875 180.503906 225.421875 180.355469 225.421875 180.261719 L 225.421875 180.175781 C 225.421875 161.898438 237.847656 145.988281 255.632812 141.472656 C 256.996094 141.152344 257.59375 141.023438 258.296875 140.894531 C 258.5625 140.851562 258.839844 140.820312 259.117188 140.800781 C 259.328125 140.769531 259.542969 140.734375 259.746094 140.703125 C 260.382812 140.542969 260.886719 140.5 261.535156 140.5 C 262.21875 140.4375 262.804688 140.375 263.464844 140.375 L 268.472656 140.375 C 268.886719 140.375 270.027344 140.480469 270.433594 140.542969 C 271.179688 140.542969 271.914062 140.683594 272.628906 140.917969 C 272.660156 140.917969 272.691406 140.925781 272.734375 140.925781 C 273.351562 140.992188 273.949219 141.121094 274.546875 141.300781 L 275.335938 141.460938 C 275.71875 141.515625 276.101562 141.589844 276.441406 141.683594 C 277.136719 141.875 277.773438 142.078125 278.382812 142.3125 C 278.542969 142.355469 278.691406 142.398438 278.851562 142.453125 C 279.332031 142.601562 280.023438 142.8125 280.789062 143.164062 C 281.035156 143.261719 281.269531 143.367188 281.503906 143.472656 C 281.503906 143.472656 281.621094 143.515625 281.78125 143.589844 C 282.058594 143.667969 282.335938 143.75 282.59375 143.847656 C 283.378906 144.15625 284.136719 144.519531 284.851562 144.957031 C 284.914062 145.007812 284.96875 145.03125 285.03125 145.0625 C 285.222656 145.160156 286.183594 145.703125 286.363281 145.808594 L 286.355469 145.828125 C 286.546875 145.914062 286.738281 146.011719 286.929688 146.105469 C 287.515625 146.40625 288.046875 146.757812 288.570312 147.117188 C 289.316406 147.503906 289.742188 147.863281 290.339844 148.449219 C 291.265625 149.058594 292.855469 150.476562 294.421875 151.871094 C 302.242188 160.003906 306.183594 169.804688 306.183594 180.109375 C 305.394531 202.285156 287.664062 219.316406 265.796875 219.316406 Z M 262.28125 156.496094 C 262.140625 156.519531 262.015625 156.527344 261.867188 156.550781 C 261.195312 156.730469 260.683594 156.773438 259.980469 156.773438 C 248.863281 159.671875 241.394531 169.21875 241.394531 180.175781 L 241.394531 180.324219 C 241.851562 193.101562 252.5625 203.339844 265.785156 203.339844 C 279 203.339844 289.722656 193.078125 290.191406 179.984375 C 290.191406 173.960938 287.8125 168.089844 283.519531 163.59375 C 282.527344 162.71875 281.34375 161.632812 280.054688 160.683594 C 279.992188 160.640625 279.9375 160.597656 279.875 160.546875 C 279.671875 160.417969 279.5 160.300781 279.394531 160.238281 C 279.042969 160.054688 278.691406 159.863281 278.339844 159.652344 C 277.816406 159.4375 277.304688 159.171875 276.828125 158.832031 C 276.539062 158.734375 276.25 158.605469 275.984375 158.480469 C 275.867188 158.4375 275.546875 158.308594 275.25 158.179688 C 275.195312 158.167969 275.152344 158.148438 275.101562 158.136719 C 274.78125 158.03125 274.460938 157.902344 274.164062 157.753906 C 274.046875 157.734375 273.929688 157.699219 273.8125 157.667969 C 273.386719 157.5625 272.957031 157.414062 272.554688 157.230469 L 270.761719 156.871094 C 270.550781 156.828125 270.347656 156.785156 270.144531 156.71875 C 270.058594 156.699219 269.976562 156.675781 269.890625 156.65625 C 269.65625 156.625 268.960938 156.507812 268.609375 156.433594 C 268.367188 156.410156 268.140625 156.390625 267.992188 156.367188 L 263.472656 156.390625 C 263.347656 156.421875 262.867188 156.484375 262.28125 156.496094 Z M 269.367188 156.476562 C 269.410156 156.476562 269.453125 156.484375 269.496094 156.484375 C 269.453125 156.484375 269.410156 156.484375 269.367188 156.476562 Z M 269.367188 156.476562 " fill-opacity="1" fill-rule="nonzero"/><path fill="#000000" d="M 111.015625 218.355469 C 91.910156 218.355469 76.371094 202.820312 76.371094 183.734375 C 76.371094 164.628906 91.910156 149.089844 111.003906 149.089844 C 130.101562 149.089844 145.636719 164.628906 145.636719 183.722656 C 145.636719 202.820312 130.101562 218.355469 111.015625 218.355469 Z M 111.003906 165.074219 C 100.722656 165.074219 92.355469 173.449219 92.355469 183.734375 C 92.355469 194.007812 100.730469 202.371094 111.015625 202.371094 C 121.289062 202.371094 129.652344 194.007812 129.652344 183.722656 C 129.652344 173.441406 121.289062 165.074219 111.003906 165.074219 Z M 111.003906 165.074219 " fill-opacity="1" fill-rule="nonzero"/></svg>