<svg xmlns="http://www.w3.org/2000/svg" xmlns:xlink="http://www.w3.org/1999/xlink" width="500" zoomAndPan="magnify" viewBox="0 0 375 374.999991" height="500" preserveAspectRatio="xMidYMid meet" version="1.0"><defs><clipPath id="47c1f18132"><path d="M 133 58 L 328.351562 58 L 328.351562 225 L 133 225 Z M 133 58 " clip-rule="nonzero"/></clipPath><clipPath id="e654a45c00"><path d="M 201 46.351562 L 321 46.351562 L 321 151 L 201 151 Z M 201 46.351562 " clip-rule="nonzero"/></clipPath></defs><path fill="#1266a9" d="M 69.347656 228 C 69.609375 228.597656 69.910156 229.148438 70.230469 229.699219 C 70.378906 230.019531 70.585938 230.351562 70.769531 230.648438 C 71.066406 231.246094 71.386719 231.816406 71.699219 232.390625 L 73.496094 235.417969 C 73.828125 235.980469 74.152344 236.53125 74.527344 237.078125 C 75.160156 238.15625 75.90625 239.210938 76.558594 240.289062 C 76.855469 240.738281 77.132812 241.183594 77.464844 241.632812 C 78.722656 243.589844 79.871094 245.21875 81.097656 246.800781 C 81.96875 247.980469 82.839844 249.140625 83.78125 250.296875 C 84.089844 250.734375 84.433594 251.167969 84.753906 251.605469 L 87.289062 254.675781 C 87.597656 255.03125 87.90625 255.445312 88.238281 255.8125 C 89.363281 257.164062 90.554688 258.472656 91.746094 259.800781 C 91.746094 259.824219 91.78125 259.847656 91.804688 259.878906 C 93.28125 261.738281 94.875 263.386719 96.617188 264.855469 L 96.664062 264.902344 C 97.582031 265.839844 98.5 266.769531 99.472656 267.6875 L 100.632812 268.800781 C 101.902344 269.992188 103.175781 271.171875 104.515625 272.320312 C 104.539062 272.320312 104.550781 272.339844 104.574219 272.351562 L 105.226562 272.925781 C 106.398438 273.945312 107.578125 274.957031 108.78125 275.894531 L 110.214844 277.097656 C 111.1875 277.878906 112.199219 278.613281 113.195312 279.378906 L 114.753906 280.570312 C 115.820312 281.375 116.953125 282.152344 118.042969 282.933594 C 118.445312 283.21875 118.847656 283.507812 119.257812 283.769531 L 119.589844 284.035156 L 122.8125 286.144531 L 124.1875 287.058594 C 125.875 288.136719 127.546875 289.148438 129.222656 290.15625 C 129.703125 290.394531 130.183594 290.660156 130.628906 290.933594 C 131.867188 291.644531 133.152344 292.367188 134.402344 293.023438 C 135.089844 293.410156 135.800781 293.742188 136.511719 294.097656 C 137.371094 294.582031 138.265625 295.050781 139.183594 295.53125 C 139.433594 295.613281 139.640625 295.691406 139.847656 295.808594 L 139.894531 295.761719 C 140.273438 295.933594 140.625 296.117188 140.992188 296.300781 C 142.371094 296.988281 143.800781 297.640625 145.292969 298.285156 C 145.566406 298.398438 145.867188 298.511719 146.164062 298.671875 C 147.8125 299.394531 149.464844 300.082031 151.171875 300.746094 C 151.5625 300.863281 151.976562 301.058594 152.375 301.207031 C 153.925781 301.792969 155.519531 302.386719 157.101562 302.949219 L 157.671875 303.15625 C 159.425781 303.75 161.15625 304.324219 162.945312 304.863281 C 163.359375 304.976562 163.78125 305.125 164.21875 305.242188 C 166.042969 305.792969 167.804688 306.445312 169.652344 306.789062 C 287.414062 328.144531 321.632812 236.335938 321.632812 236.335938 C 292.882812 273.589844 241.859375 283.414062 193.542969 272.480469 C 191.753906 272.066406 189.964844 271.492188 188.152344 270.964844 C 184.875 270.015625 182.699219 269.328125 180.554688 268.570312 L 181.644531 268.902344 L 180.933594 268.628906 C 179.375 268.101562 177.871094 267.515625 176.347656 266.929688 C 176.058594 266.804688 175.636719 266.644531 175.210938 266.496094 L 175.085938 266.460938 C 173.402344 265.785156 171.761719 265.097656 170.132812 264.375 C 169.777344 264.261719 169.480469 264.097656 169.125 263.960938 C 166.121094 262.632812 164.757812 261.988281 163.394531 261.324219 L 164.976562 262.023438 C 164.550781 261.839844 164.171875 261.644531 163.761719 261.429688 C 162.683594 260.925781 161.605469 260.351562 160.550781 259.8125 C 159.5625 259.34375 158.863281 258.976562 158.175781 258.597656 L 158.40625 258.710938 C 157.109375 258.023438 155.816406 257.277344 154.507812 256.578125 C 154.121094 256.304688 153.671875 256.074219 153.226562 255.824219 C 150.75 254.378906 149.109375 253.359375 147.46875 252.316406 L 148.191406 252.75 C 147.640625 252.40625 147.195312 252.109375 146.769531 251.800781 L 146.839844 251.84375 C 145.429688 250.972656 144.308594 250.230469 143.21875 249.460938 C 142.828125 249.207031 142.472656 248.933594 142.070312 248.65625 C 140.605469 247.648438 139.503906 246.859375 138.425781 246.042969 L 138.699219 246.238281 C 138.21875 245.847656 137.703125 245.484375 137.1875 245.105469 C 136.179688 244.3125 135.160156 243.558594 134.148438 242.730469 L 132.796875 241.652344 C 131.339844 240.484375 130.125 239.464844 128.933594 238.421875 C 128.820312 238.304688 128.695312 238.203125 128.554688 238.113281 L 128.542969 238.101562 L 124.566406 234.488281 L 123.421875 233.410156 C 122.480469 232.460938 121.515625 231.554688 120.554688 230.613281 L 119.441406 229.46875 C 118.25 228.289062 117.105469 227.09375 115.96875 225.855469 L 115.898438 225.777344 L 115.707031 225.617188 C 114.492188 224.285156 113.308594 222.945312 112.117188 221.570312 C 111.808594 221.214844 111.519531 220.835938 111.199219 220.457031 L 108.597656 217.304688 C 107.691406 216.183594 106.421875 214.519531 105.160156 212.824219 L 104.699219 212.179688 C 77.898438 175.773438 68.199219 125.53125 89.648438 84.308594 L 70.710938 108.253906 C 46.351562 143.089844 49.367188 188.394531 67.996094 225.386719 C 68.417969 226.292969 68.890625 227.140625 69.347656 228 Z M 69.347656 228 " fill-opacity="1" fill-rule="nonzero"/><path fill="#000000" d="M 151.390625 177.8125 C 151.34375 177.757812 151.3125 177.6875 151.265625 177.628906 C 151.230469 177.585938 151.195312 177.539062 151.160156 177.492188 Z M 151.390625 177.8125 " fill-opacity="1" fill-rule="nonzero"/><g clip-path="url(#47c1f18132)"><path fill="#1266a9" d="M 164.207031 192.855469 L 165.238281 193.886719 C 166.546875 195.148438 167.886719 196.375 169.25 197.601562 L 169.421875 197.75 C 170.796875 198.964844 172.347656 200.238281 173.941406 201.476562 L 174.179688 201.65625 C 174.570312 201.921875 174.902344 202.230469 175.28125 202.496094 C 176.886719 203.734375 178.503906 204.914062 180.1875 206.09375 L 180.359375 206.199219 C 181.070312 206.714844 181.828125 207.183594 182.628906 207.6875 C 182.949219 207.894531 183.316406 208.167969 183.660156 208.375 C 184.875 209.15625 186.066406 209.878906 187.292969 210.621094 C 187.488281 210.703125 187.660156 210.804688 187.84375 210.886719 C 188.875 211.515625 190 212.125 191.078125 212.675781 C 191.457031 212.902344 191.824219 213.074219 192.210938 213.292969 C 192.980469 213.671875 193.738281 214.074219 194.46875 214.460938 L 194.835938 214.625 C 196.386719 215.378906 197.96875 216.089844 199.515625 216.789062 C 199.902344 216.9375 200.238281 217.066406 200.570312 217.226562 C 201.839844 217.777344 203.136719 218.304688 204.410156 218.785156 C 204.984375 218.980469 205.519531 219.207031 206.058594 219.378906 C 207.230469 219.816406 208.457031 220.21875 209.613281 220.617188 L 211.21875 221.132812 C 212.890625 221.648438 214.589844 222.328125 216.367188 222.601562 C 307.304688 237.574219 328.351562 167.910156 328.351562 167.910156 C 309.402344 195.042969 272.730469 207.972656 233.652344 197.875 C 231.28125 197.269531 229.558594 196.761719 227.851562 196.214844 L 228.503906 196.394531 C 227.957031 196.246094 227.472656 196.074219 226.945312 195.914062 C 225.753906 195.503906 224.527344 195.101562 223.371094 194.675781 L 221.71875 194.058594 C 220.433594 193.542969 219.128906 193.058594 217.878906 192.511719 C 217.488281 192.339844 217.132812 192.222656 216.835938 192.050781 C 215.230469 191.328125 213.613281 190.617188 212.042969 189.863281 L 209.683594 188.636719 L 208.316406 187.949219 C 207.265625 187.398438 206.289062 186.824219 205.28125 186.238281 C 204.992188 186.101562 204.765625 185.976562 204.535156 185.828125 L 204.570312 185.839844 C 203.355469 185.082031 202.09375 184.347656 200.925781 183.582031 C 200.535156 183.363281 200.179688 183.097656 199.8125 182.871094 L 197.429688 181.320312 C 195.777344 180.175781 194.160156 178.949219 192.523438 177.757812 C 192.15625 177.425781 191.800781 177.148438 191.445312 176.851562 C 174.261719 163.40625 160.710938 145.027344 154.28125 124.222656 C 147.503906 102.589844 148.996094 78.335938 160.699219 58.652344 L 146.3125 78.917969 C 128.648438 104.148438 129.644531 137.875 143.402344 164.5625 C 145.910156 169.492188 148.457031 173.652344 151.265625 177.621094 C 153.878906 181.355469 156.765625 185.734375 160.253906 188.738281 C 161.492188 190.148438 162.820312 191.488281 164.207031 192.855469 Z M 164.207031 192.855469 " fill-opacity="1" fill-rule="nonzero"/></g><path fill="#000000" d="M 81.15625 246.871094 L 81.109375 246.800781 L 81.027344 246.699219 Z M 81.15625 246.871094 " fill-opacity="1" fill-rule="nonzero"/><path fill="#000000" d="M 128.820312 238.339844 L 128.933594 238.421875 L 128.957031 238.457031 Z M 128.820312 238.339844 " fill-opacity="1" fill-rule="nonzero"/><g clip-path="url(#e654a45c00)"><path fill="#1266a9" d="M 209.890625 56.976562 C 199.46875 72.191406 198.472656 91.082031 205.648438 107.851562 C 213.269531 125.667969 228.847656 139.652344 247.007812 146.277344 C 247.753906 146.566406 248.476562 146.804688 249.242188 147.082031 L 250.25 147.390625 C 251.304688 147.722656 252.371094 148.113281 253.460938 148.351562 C 303.683594 157.992188 317.277344 122.699219 320.933594 117.503906 C 308.980469 134.585938 288.929688 138.691406 264.328125 132.738281 C 261.921875 132.144531 259.9375 131.511719 258.023438 130.792969 L 258.402344 130.917969 C 255.5 129.898438 253.164062 128.921875 250.882812 127.820312 L 251.316406 128.015625 C 246.617188 125.722656 242.582031 123.25 238.832031 120.40625 C 216.847656 103.785156 203.25 72.132812 217.605469 46.351562 Z M 209.890625 56.976562 " fill-opacity="1" fill-rule="nonzero"/></g></svg>