<svg xmlns="http://www.w3.org/2000/svg" xmlns:xlink="http://www.w3.org/1999/xlink" width="500" zoomAndPan="magnify" viewBox="0 0 375 374.999991" height="500" preserveAspectRatio="xMidYMid meet" version="1.0"><defs><clipPath id="695fee4415"><path d="M 40.03125 40.03125 L 334.78125 40.03125 L 334.78125 334.78125 L 40.03125 334.78125 Z M 40.03125 40.03125 " clip-rule="nonzero"/></clipPath></defs><g clip-path="url(#695fee4415)"><path fill="#0277b5" d="M 310.15625 40.03125 L 64.800781 40.03125 C 51.234375 40.03125 40.324219 51.089844 40.324219 64.507812 L 40.324219 310.304688 C 40.324219 323.867188 51.382812 334.78125 64.800781 334.78125 L 310.007812 334.78125 C 323.574219 334.78125 334.484375 323.722656 334.484375 310.304688 L 334.484375 64.507812 C 334.632812 51.089844 323.722656 40.03125 310.15625 40.03125 Z M 127.464844 283.171875 L 83.96875 283.171875 L 83.96875 152.53125 L 127.464844 152.53125 Z M 105.644531 136.753906 C 91.929688 136.753906 80.871094 125.695312 80.871094 111.984375 C 80.871094 98.273438 91.929688 87.214844 105.644531 87.214844 C 119.355469 87.214844 130.414062 98.273438 130.414062 111.984375 C 130.414062 125.695312 119.355469 136.753906 105.644531 136.753906 Z M 291.132812 283.171875 L 247.488281 283.171875 L 246.457031 205.613281 C 246.457031 205.613281 247.488281 184.972656 224.929688 185.117188 C 202.371094 185.265625 199.273438 205.613281 199.273438 205.613281 L 199.273438 283.171875 L 155.335938 283.171875 L 155.335938 152.53125 L 197.503906 152.53125 L 197.503906 170.523438 C 197.503906 170.523438 199.273438 164.625 209.003906 157.695312 C 218.738281 150.761719 234.808594 149.289062 241.738281 149.582031 C 248.667969 149.878906 258.105469 148.699219 273.882812 159.609375 C 290.839844 171.257812 291.28125 201.78125 291.28125 201.78125 Z M 291.132812 283.171875 " fill-opacity="1" fill-rule="nonzero"/></g></svg>