<svg xmlns="http://www.w3.org/2000/svg" xmlns:xlink="http://www.w3.org/1999/xlink" width="500" zoomAndPan="magnify" viewBox="0 0 375 374.999991" height="500" preserveAspectRatio="xMidYMid meet" version="1.0"><defs><g/></defs><g fill="#000000" fill-opacity="1"><g transform="translate(42.511064, 278.243667)"><g><path d="M 15.488281 1.695312 C 33.757812 1.695312 52.507812 -16.453125 71.625 -36.902344 C 76.101562 -35.691406 80.699219 -34.964844 85.660156 -34.964844 C 94.128906 -34.964844 100.664062 -38.234375 105.625 -42.347656 C 102.839844 -27.828125 101.390625 -17.542969 100.90625 -12.097656 C 100.179688 -2.058594 104.292969 0.847656 107.558594 0.847656 C 112.035156 0.847656 118.8125 -3.75 126.433594 -10.648438 L 125.464844 -11.855469 C 120.386719 -7.257812 116.511719 -5.082031 113.367188 -5.082031 C 110.949219 -5.082031 107.800781 -6.050781 107.800781 -12.703125 C 107.800781 -19.84375 113.367188 -51.785156 123.167969 -95.339844 C 123.410156 -96.308594 123.046875 -96.792969 122.078125 -96.792969 L 91.105469 -96.792969 C 88.324219 -96.792969 86.265625 -96.1875 84.570312 -94.855469 C 80.578125 -91.589844 76.949219 -87.476562 73.5625 -83.726562 L 74.53125 -82.878906 C 79.492188 -87.597656 82.515625 -90.5 91.226562 -90.621094 L 114.820312 -90.984375 C 108.648438 -82.878906 92.4375 -61.824219 74.53125 -42.226562 C 62.550781 -46.582031 50.210938 -53.234375 34.121094 -53.234375 C 14.761719 -53.234375 -5.324219 -36.78125 -5.324219 -18.027344 C -5.324219 -8.589844 0.847656 1.695312 15.488281 1.695312 Z M 0.726562 -21.65625 C 0.726562 -36.054688 12.339844 -50.210938 29.761719 -50.210938 C 42.710938 -50.210938 55.171875 -41.621094 69.933594 -37.386719 C 52.269531 -18.390625 34.722656 -2.179688 19.601562 -2.179688 C 8.832031 -2.179688 0.726562 -10.164062 0.726562 -21.65625 Z M 76.222656 -41.742188 C 93.644531 -60.496094 108.769531 -80.09375 115.425781 -88.808594 C 111.433594 -71.503906 108.285156 -56.625 105.988281 -44.402344 C 102.960938 -41.621094 98 -38.597656 91.953125 -38.597656 C 86.628906 -38.597656 81.425781 -39.925781 76.222656 -41.742188 Z M 76.222656 -41.742188 "/></g></g></g><g fill="#000000" fill-opacity="1"><g transform="translate(160.471997, 278.243667)"><g><path d="M 42.589844 1.210938 C 58.558594 1.210938 72.59375 -7.378906 72.59375 -31.699219 L 72.59375 -69.328125 C 72.59375 -80.457031 74.046875 -82.515625 77.433594 -83.363281 L 77.433594 -84.691406 L 63.519531 -84.691406 L 63.519531 -83.363281 C 67.996094 -82.394531 70.777344 -79.730469 70.777344 -67.148438 L 70.777344 -31.214844 C 70.777344 -7.136719 56.019531 -0.847656 45.371094 -0.847656 C 30.609375 -0.847656 16.453125 -8.953125 16.453125 -31.941406 L 16.453125 -69.328125 C 16.453125 -80.457031 17.90625 -82.515625 21.292969 -83.363281 L 21.292969 -84.691406 L 4.839844 -84.691406 L 4.839844 -83.363281 C 8.226562 -82.515625 9.679688 -80.457031 9.679688 -69.328125 L 9.679688 -29.28125 C 9.679688 -6.894531 25.527344 1.210938 42.589844 1.210938 Z M 42.589844 1.210938 "/></g></g></g><g fill="#000000" fill-opacity="1"><g transform="translate(229.311495, 278.243667)"><g><path d="M 6.65625 0 L 64.609375 0 L 65.699219 -14.398438 L 64.609375 -14.640625 C 60.617188 -4.476562 54.203125 -1.574219 43.3125 -1.574219 L 23.109375 -1.574219 C 19.964844 -1.574219 18.269531 -3.265625 18.269531 -6.414062 L 18.269531 -44.28125 L 38.113281 -44.28125 C 50.695312 -44.28125 53.355469 -41.5 54.324219 -37.023438 L 55.65625 -37.023438 L 55.65625 -53.113281 L 54.324219 -53.113281 C 53.355469 -48.636719 50.695312 -45.855469 38.113281 -45.855469 L 18.269531 -45.855469 L 18.269531 -83.121094 L 40.046875 -83.121094 C 50.9375 -83.121094 57.589844 -79.492188 61.34375 -70.054688 L 62.429688 -70.296875 L 60.980469 -84.691406 L 6.65625 -84.691406 L 6.65625 -83.363281 C 10.042969 -82.515625 11.492188 -80.457031 11.492188 -69.328125 L 11.492188 -15.367188 C 11.492188 -4.234375 10.042969 -2.179688 6.65625 -1.332031 Z M 6.65625 0 "/></g></g></g><g fill="#000000" fill-opacity="1"><g transform="translate(287.625347, 278.243667)"><g><path d="M 68.359375 0.847656 C 71.019531 0.847656 73.441406 0.363281 74.289062 0 L 74.289062 -1.210938 C 73.5625 -1.089844 72.957031 -0.96875 72.230469 -0.96875 C 68.359375 -0.96875 64.851562 -6.292969 59.769531 -19.117188 C 54.445312 -32.667969 52.507812 -41.984375 36.296875 -44.28125 C 51.785156 -45.855469 60.617188 -54.6875 60.617188 -66.300781 C 60.617188 -78.039062 51.421875 -84.691406 28.917969 -84.691406 L 6.65625 -84.691406 L 6.65625 -83.363281 C 10.042969 -82.515625 11.492188 -80.457031 11.492188 -69.328125 L 11.492188 -15.367188 C 11.492188 -4.234375 10.042969 -2.179688 6.65625 -1.332031 L 6.65625 0 L 23.109375 0 L 23.109375 -1.332031 C 19.722656 -2.179688 18.269531 -4.234375 18.269531 -15.367188 L 18.269531 -44.039062 L 26.617188 -44.039062 C 45.371094 -44.039062 46.824219 -32.789062 53.597656 -17.179688 C 58.316406 -6.292969 59.648438 0.847656 68.359375 0.847656 Z M 18.269531 -45.734375 L 18.269531 -82.878906 C 20.449219 -83 22.382812 -83.121094 24.320312 -83.121094 C 45.371094 -83.121094 53.113281 -75.496094 53.113281 -63.640625 C 53.113281 -52.269531 45.128906 -45.734375 31.09375 -45.734375 Z M 18.269531 -45.734375 "/></g></g></g><g fill="#000000" fill-opacity="1"><g transform="translate(35.507772, 185.877009)"><g><path d="M 70.664062 -90.429688 L 70.664062 -12.660156 L 17.183594 -90.429688 L 11.238281 -90.429688 L 11.238281 0 L 18.085938 0 L 18.085938 -77.769531 L 71.441406 0 L 77.511719 0 L 77.511719 -90.429688 Z M 70.664062 -90.429688 "/></g></g></g><g fill="#000000" fill-opacity="1"><g transform="translate(126.455805, 185.877009)"><g><path d="M 11.238281 -90.429688 L 11.238281 0 L 18.085938 0 L 18.085938 -90.429688 Z M 11.238281 -90.429688 "/></g></g></g><g fill="#000000" fill-opacity="1"><g transform="translate(157.977581, 185.877009)"><g><path d="M 72.601562 0 L 25.578125 -46.507812 L 71.3125 -90.429688 L 62.140625 -90.429688 L 18.085938 -48.316406 L 18.085938 -90.429688 L 11.238281 -90.429688 L 11.238281 0 L 18.085938 0 L 18.085938 -44.570312 L 63.429688 0 Z M 72.601562 0 "/></g></g></g><g fill="#000000" fill-opacity="1"><g transform="translate(234.069068, 185.877009)"><g><path d="M 52.707031 1.421875 C 78.804688 1.421875 99.34375 -19.378906 99.34375 -45.214844 C 99.34375 -71.054688 78.804688 -91.851562 52.707031 -91.851562 C 26.613281 -91.851562 6.070312 -71.054688 6.070312 -45.214844 C 6.070312 -19.378906 26.613281 1.421875 52.707031 1.421875 Z M 52.707031 -5.167969 C 30.359375 -5.167969 12.917969 -22.996094 12.917969 -45.214844 C 12.917969 -67.4375 30.359375 -85.265625 52.707031 -85.265625 C 75.058594 -85.265625 92.5 -67.4375 92.5 -45.214844 C 92.5 -22.996094 75.058594 -5.167969 52.707031 -5.167969 Z M 52.707031 -5.167969 "/></g></g></g></svg>