<svg xmlns="http://www.w3.org/2000/svg" xmlns:xlink="http://www.w3.org/1999/xlink" width="500" zoomAndPan="magnify" viewBox="0 0 375 374.999991" height="500" preserveAspectRatio="xMidYMid meet" version="1.0"><defs><clipPath id="4cbc1b2173"><path d="M 118 39 L 257 39 L 257 335.847656 L 118 335.847656 Z M 118 39 " clip-rule="nonzero"/></clipPath></defs><g clip-path="url(#4cbc1b2173)"><path fill="#01ec64" d="M 213.042969 72.425781 C 200.621094 57.691406 189.925781 42.722656 187.742188 39.617188 C 187.6875 39.5625 187.625 39.519531 187.558594 39.488281 C 187.488281 39.457031 187.414062 39.445312 187.339844 39.445312 C 187.261719 39.445312 187.1875 39.457031 187.117188 39.488281 C 187.050781 39.519531 186.988281 39.5625 186.933594 39.617188 C 184.75 42.722656 174.054688 57.691406 161.632812 72.425781 C 55.011719 208.378906 178.425781 300.125 178.425781 300.125 L 179.460938 300.816406 C 180.378906 314.976562 182.679688 335.355469 182.679688 335.355469 L 191.882812 335.355469 C 191.882812 335.355469 194.179688 315.09375 195.101562 300.816406 L 196.136719 300.011719 C 196.25 300.128906 319.664062 208.378906 213.042969 72.425781 Z M 187.28125 298.054688 C 187.28125 298.054688 181.757812 293.335938 180.265625 290.917969 L 180.265625 290.6875 L 186.933594 142.644531 C 186.933594 142.1875 187.625 142.1875 187.625 142.644531 L 194.296875 290.6875 L 194.296875 290.917969 C 192.800781 293.335938 187.28125 298.054688 187.28125 298.054688 Z M 187.28125 298.054688 " fill-opacity="1" fill-rule="nonzero"/></g></svg>