<svg xmlns="http://www.w3.org/2000/svg" xmlns:xlink="http://www.w3.org/1999/xlink" width="500" zoomAndPan="magnify" viewBox="0 0 375 374.999991" height="500" preserveAspectRatio="xMidYMid meet" version="1.0"><defs><clipPath id="95998838ce"><path d="M 112 222 L 160 222 L 160 291.488281 L 112 291.488281 Z M 112 222 " clip-rule="nonzero"/></clipPath></defs><g clip-path="url(#95998838ce)"><path fill="#105e86" d="M 117.824219 284.53125 C 115.964844 284.53125 114.3125 284.414062 112.910156 284.199219 L 112.910156 290.378906 C 115.785156 291.527344 118.167969 292.101562 120.113281 292.101562 C 127.402344 292.101562 134.121094 287.640625 140.25 278.679688 C 148.089844 267.082031 154.421875 248.460938 159.234375 222.867188 L 148.039062 222.867188 C 146.039062 238.582031 142.503906 253.136719 137.414062 266.445312 C 137.769531 263.78125 136.894531 259.101562 134.804688 252.398438 L 125.558594 222.867188 L 113.980469 222.867188 L 126.878906 262.367188 C 128.828125 268.292969 129.808594 272.242188 129.808594 274.179688 C 129.808594 276.972656 128.558594 279.496094 126.054688 281.75 C 123.96875 283.585938 121.230469 284.53125 117.824219 284.53125 Z M 117.824219 284.53125 " fill-opacity="1" fill-rule="nonzero"/></g><path fill="#de8a03" d="M 282.570312 204.730469 L 282.570312 273.925781 L 316.03125 273.925781 L 316.03125 265.410156 L 293.832031 265.410156 L 293.832031 204.730469 Z M 282.570312 204.730469 " fill-opacity="1" fill-rule="nonzero"/><path fill="#105e86" d="M 47.953125 218.738281 L 48.082031 218.738281 L 65.890625 273.925781 L 74.859375 273.925781 L 92.796875 218.738281 L 92.898438 218.738281 C 94.769531 236.007812 95.953125 254.375 96.335938 273.925781 L 108.167969 273.925781 C 107.605469 253.023438 105.800781 229.941406 102.722656 204.730469 L 88.792969 204.730469 L 71.65625 255.585938 L 71.554688 255.585938 L 54.570312 204.730469 L 39.9375 204.730469 C 37.164062 226.246094 35.421875 249.328125 34.722656 273.925781 L 45.472656 273.925781 C 45.816406 253.6875 46.644531 235.292969 47.953125 218.738281 Z M 47.953125 218.738281 " fill-opacity="1" fill-rule="nonzero"/><path fill="#de8a03" d="M 272.355469 238.035156 C 272.355469 215.144531 263.222656 203.671875 244.941406 203.671875 C 235.984375 203.671875 228.988281 206.578125 223.949219 212.390625 C 218.476562 218.75 215.730469 228.105469 215.730469 240.480469 C 215.730469 252.640625 218.148438 261.574219 223.03125 267.261719 C 227.484375 272.394531 234.191406 274.957031 243.171875 274.957031 C 246.53125 274.957031 249.609375 274.550781 252.394531 273.734375 L 269.25 283.394531 L 273.832031 275.621094 L 273.792969 275.621094 L 260.867188 269.363281 C 262.011719 268.40625 263.121094 267.386719 264.113281 266.242188 C 269.621094 259.894531 272.355469 250.488281 272.355469 238.035156 Z M 244.328125 266.394531 C 238.667969 266.394531 234.535156 264.304688 231.886719 260.136719 L 231.914062 260.070312 C 229.050781 255.574219 227.625 248.308594 227.625 238.351562 C 227.625 220.917969 233.019531 212.199219 243.78125 212.199219 C 249.417969 212.199219 253.578125 214.289062 256.210938 218.457031 C 259.0625 222.984375 260.484375 230.171875 260.484375 240.023438 C 260.484375 257.585938 255.09375 266.394531 244.328125 266.394531 Z M 244.328125 266.394531 " fill-opacity="1" fill-rule="nonzero"/><path fill="#de8a03" d="M 202.652344 240.175781 C 202.652344 240.175781 192.550781 234.480469 187.550781 231.789062 C 182.054688 228.78125 179.078125 225.25 179.078125 221.160156 C 179.078125 218.484375 180.289062 216.304688 182.234375 214.597656 C 184.167969 212.863281 186.953125 212.019531 190.554688 212.019531 C 194.992188 212.019531 199.511719 212.988281 204.089844 214.902344 L 206.800781 208.949219 C 201.457031 205.519531 195.503906 203.824219 188.988281 203.824219 C 182.628906 203.824219 177.476562 205.535156 173.46875 209.011719 C 169.484375 212.453125 167.488281 216.953125 167.488281 222.585938 C 167.488281 229.355469 170.160156 233.472656 175.527344 237.320312 C 175.527344 237.320312 185.390625 242.878906 190.324219 245.542969 C 195.644531 248.484375 198.570312 251.992188 198.570312 256.121094 C 198.570312 259.382812 197.144531 261.96875 194.753906 263.820312 C 192.335938 265.652344 189.015625 266.570312 184.789062 266.570312 C 180.25 266.570312 175.222656 265.21875 169.652344 262.46875 L 166.636719 268.417969 C 173.113281 272.714844 179.738281 274.867188 186.648438 274.867188 C 194.039062 274.867188 199.878906 272.996094 204.253906 269.234375 C 208.632812 265.488281 210.820312 260.65625 210.820312 254.769531 L 210.894531 254.808594 C 210.894531 248.066406 208.160156 244 202.652344 240.175781 Z M 202.652344 240.175781 " fill-opacity="1" fill-rule="nonzero"/><path fill="#105e86" d="M 243.425781 108.820312 C 241.964844 108.820312 240.972656 109 239.941406 109.230469 L 239.941406 109.394531 L 240.117188 109.394531 C 240.804688 110.695312 241.976562 111.652344 242.839844 112.8125 C 243.527344 114.148438 244.113281 115.488281 244.800781 116.8125 L 244.976562 116.621094 C 246.175781 115.792969 246.757812 114.46875 246.757812 112.453125 C 246.25 111.867188 246.175781 111.28125 245.742188 110.707031 C 245.234375 109.867188 244.136719 109.460938 243.453125 108.796875 Z M 243.425781 108.820312 " fill-opacity="1" fill-rule="nonzero"/><path fill="#105e86" d="M 336.167969 203.546875 C 333.699219 200.296875 330.636719 197.453125 327.328125 195.09375 C 324.605469 193.273438 318.652344 190.710938 317.53125 187.652344 L 317.367188 187.472656 C 319.222656 187.308594 321.4375 186.644531 323.21875 186.148438 C 326.105469 185.394531 328.753906 185.5625 331.742188 184.824219 C 333.089844 184.492188 334.453125 184.070312 335.8125 183.648438 L 335.8125 182.898438 C 334.285156 181.394531 333.140625 179.355469 331.5625 177.953125 C 327.238281 174.257812 322.441406 170.675781 317.519531 167.65625 C 314.847656 165.972656 311.464844 164.902344 308.652344 163.472656 C 307.632812 162.976562 305.929688 162.722656 305.34375 161.882812 C 303.816406 160.058594 302.925781 157.625 301.84375 155.445312 C 299.402344 150.84375 297.011719 145.746094 294.886719 140.890625 C 293.359375 137.613281 292.429688 134.351562 290.5625 131.34375 C 281.78125 117.117188 272.28125 108.492188 257.660156 100.066406 C 254.519531 98.320312 250.753906 97.566406 246.773438 96.636719 C 244.648438 96.535156 242.523438 96.382812 240.410156 96.292969 C 239.011719 95.707031 237.664062 94.113281 236.46875 93.347656 C 231.632812 90.339844 219.113281 83.839844 215.550781 92.445312 C 213.261719 97.875 218.949219 103.226562 220.921875 105.980469 C 222.382812 107.890625 224.230469 110.082031 225.246094 112.238281 C 225.84375 113.691406 226.007812 115.183594 226.609375 116.699219 C 227.957031 120.382812 229.242188 124.472656 231.023438 127.925781 C 231.949219 129.671875 232.96875 131.519531 234.164062 133.089844 C 234.851562 134.007812 236.023438 134.425781 236.289062 135.929688 C 235.09375 137.640625 235.015625 140.113281 234.328125 142.1875 C 231.277344 151.660156 232.472656 163.371094 236.796875 170.34375 C 238.160156 172.421875 241.402344 177.023438 245.742188 175.261719 C 249.558594 173.757812 248.71875 169.003906 249.8125 164.8125 C 250.066406 163.804688 249.902344 163.144531 250.421875 162.46875 L 250.421875 162.660156 C 251.617188 165.015625 252.816406 167.246094 253.910156 169.605469 C 256.53125 173.707031 261.109375 177.964844 264.9375 180.808594 C 266.972656 182.3125 268.589844 184.910156 271.132812 185.84375 L 271.132812 185.585938 L 270.945312 185.585938 C 270.398438 184.859375 269.671875 184.515625 268.984375 183.917969 C 267.457031 182.414062 265.742188 180.578125 264.53125 178.910156 C 260.96875 174.191406 257.828125 169.019531 255.027344 163.664062 C 253.628906 161.039062 252.457031 158.210938 251.339844 155.621094 C 250.832031 154.628906 250.832031 153.125 249.976562 152.613281 C 248.707031 154.4375 246.835938 156.03125 245.90625 158.285156 C 244.292969 161.894531 244.125 166.316406 243.515625 170.929688 C 243.171875 171.019531 243.335938 170.929688 243.171875 171.109375 C 240.449219 170.457031 239.519531 167.679688 238.503906 165.347656 C 235.957031 159.410156 235.539062 149.863281 237.738281 143.003906 C 238.335938 141.257812 240.882812 135.726562 239.863281 134.046875 C 239.328125 132.453125 237.648438 131.546875 236.722656 130.257812 C 235.613281 128.703125 234.433594 126.691406 233.667969 124.917969 C 231.632812 120.242188 230.613281 115.054688 228.402344 110.375 C 227.382812 108.210938 225.601562 105.941406 224.152344 103.953125 C 222.535156 101.695312 220.753906 100.117188 219.46875 97.441406 C 219.050781 96.523438 218.453125 95.003906 219.128906 94.011719 C 219.304688 93.335938 219.660156 93.070312 220.324219 92.890625 C 221.441406 91.984375 224.585938 93.171875 225.691406 93.667969 C 228.835938 94.917969 231.480469 96.089844 234.113281 97.847656 C 235.308594 98.675781 236.59375 100.257812 238.121094 100.675781 L 239.902344 100.675781 C 242.625 101.265625 245.691406 100.855469 248.234375 101.59375 C 252.75 103.023438 256.820312 105.101562 260.472656 107.355469 C 271.617188 114.316406 280.777344 124.179688 287 135.957031 C 288.015625 137.882812 288.460938 139.652344 289.390625 141.652344 C 291.171875 145.785156 293.371094 149.953125 295.179688 153.941406 C 296.960938 157.878906 298.675781 161.90625 301.234375 165.167969 C 302.507812 166.914062 307.621094 167.832031 309.910156 168.75 C 311.601562 169.503906 314.234375 170.191406 315.761719 171.109375 C 318.6875 172.855469 321.539062 174.867188 324.285156 176.792969 C 325.6875 177.75 329.921875 179.839844 330.175781 181.523438 C 323.371094 181.34375 318.089844 182.019531 313.675781 183.878906 C 312.402344 184.375 310.367188 184.375 310.191406 185.96875 C 310.890625 186.632812 310.992188 187.714844 311.589844 188.644531 C 312.609375 190.316406 314.363281 192.558594 315.992188 193.746094 C 317.773438 195.121094 319.554688 196.445312 321.425781 197.617188 C 324.730469 199.621094 328.484375 200.804688 331.730469 202.820312 C 333.574219 203.992188 335.457031 205.484375 337.328125 206.730469 C 338.253906 207.355469 338.851562 208.492188 340.050781 208.886719 L 340.050781 208.644531 C 339.464844 207.890625 339.285156 206.808594 338.714844 205.96875 C 337.859375 205.125 337.007812 204.375 336.167969 203.546875 Z M 336.167969 203.546875 " fill-opacity="1" fill-rule="nonzero"/></svg>