<svg xmlns="http://www.w3.org/2000/svg" xmlns:xlink="http://www.w3.org/1999/xlink" width="2000" zoomAndPan="magnify" viewBox="0 0 1500 449.999984" height="600" preserveAspectRatio="xMidYMid meet" version="1.0"><defs><g/><clipPath id="7d88dfb158"><path d="M 1219.554688 259.113281 L 1282.554688 259.113281 L 1282.554688 322.113281 L 1219.554688 322.113281 Z M 1219.554688 259.113281 " clip-rule="nonzero"/></clipPath><clipPath id="b57a07d1b6"><path d="M 234.800781 90.1875 L 297.800781 90.1875 L 297.800781 153.1875 L 234.800781 153.1875 Z M 234.800781 90.1875 " clip-rule="nonzero"/></clipPath></defs><g fill="#5ce1e6" fill-opacity="1"><g transform="translate(266.462555, 285.413123)"><g><path d="M 12.171875 0 L 12.171875 -109.0625 L 76.765625 -109.0625 C 89.585938 -109.0625 99.476562 -105.753906 106.4375 -99.140625 C 113.394531 -92.535156 116.875 -83.476562 116.875 -71.96875 C 116.875 -60.445312 113.394531 -51.28125 106.4375 -44.46875 C 99.476562 -37.65625 89.585938 -34.25 76.765625 -34.25 L 39.515625 -34.25 L 39.515625 0 Z M 39.515625 -86.6875 L 39.515625 -56.640625 L 64.59375 -56.640625 C 73.113281 -56.640625 79.398438 -57.613281 83.453125 -59.5625 C 87.515625 -61.519531 89.546875 -65.503906 89.546875 -71.515625 C 89.546875 -77.722656 87.71875 -81.800781 84.0625 -83.75 C 80.40625 -85.707031 74.519531 -86.6875 66.40625 -86.6875 Z M 39.515625 -86.6875 "/></g></g></g><g fill="#5ce1e6" fill-opacity="1"><g transform="translate(384.837496, 285.413123)"><g><path d="M 12.171875 0 L 12.171875 -109.0625 L 79.171875 -109.0625 C 93.390625 -109.0625 104.003906 -106.757812 111.015625 -102.15625 C 118.035156 -97.550781 121.546875 -90.09375 121.546875 -79.78125 C 121.546875 -73.363281 119.96875 -67.703125 116.8125 -62.796875 C 113.65625 -57.890625 109.222656 -54.332031 103.515625 -52.125 C 107.421875 -50.53125 110.296875 -48.726562 112.140625 -46.71875 C 113.992188 -44.71875 115.242188 -42.289062 115.890625 -39.4375 C 116.546875 -36.582031 116.976562 -33.050781 117.1875 -28.84375 C 117.488281 -22.332031 117.890625 -16.644531 118.390625 -11.78125 C 118.890625 -6.925781 120.441406 -3 123.046875 0 L 92.390625 0 C 90.890625 -2.40625 90.140625 -5.207031 90.140625 -8.40625 L 90.140625 -15.921875 C 90.140625 -22.128906 89.6875 -26.984375 88.78125 -30.484375 C 87.882812 -33.992188 86.054688 -36.472656 83.296875 -37.921875 C 80.546875 -39.378906 76.46875 -40.109375 71.0625 -40.109375 L 39.515625 -40.109375 L 39.515625 0 Z M 39.515625 -86.6875 L 39.515625 -62.5 L 70.453125 -62.5 C 77.867188 -62.5 83.425781 -63.375 87.125 -65.125 C 90.832031 -66.875 92.6875 -70.304688 92.6875 -75.421875 C 92.6875 -78.921875 91.835938 -81.445312 90.140625 -83 C 88.441406 -84.550781 85.863281 -85.550781 82.40625 -86 C 78.945312 -86.457031 74.566406 -86.6875 69.265625 -86.6875 Z M 39.515625 -86.6875 "/></g></g></g><g fill="#5ce1e6" fill-opacity="1"><g transform="translate(509.371579, 285.413123)"><g><path d="M 71.65625 -111.921875 C 85.082031 -111.921875 96.648438 -109.539062 106.359375 -104.78125 C 116.078125 -100.03125 123.585938 -93.347656 128.890625 -84.734375 C 134.203125 -76.117188 136.859375 -66.050781 136.859375 -54.53125 C 136.859375 -43.019531 134.203125 -32.957031 128.890625 -24.34375 C 123.585938 -15.726562 116.078125 -9.039062 106.359375 -4.28125 C 96.648438 0.476562 85.082031 2.859375 71.65625 2.859375 C 58.34375 2.859375 46.773438 0.476562 36.953125 -4.28125 C 27.140625 -9.039062 19.578125 -15.726562 14.265625 -24.34375 C 8.960938 -32.957031 6.3125 -43.019531 6.3125 -54.53125 C 6.3125 -66.050781 8.960938 -76.117188 14.265625 -84.734375 C 19.578125 -93.347656 27.140625 -100.03125 36.953125 -104.78125 C 46.773438 -109.539062 58.34375 -111.921875 71.65625 -111.921875 Z M 71.65625 -89.546875 C 60.738281 -89.546875 52.125 -86.4375 45.8125 -80.21875 C 39.507812 -74.007812 36.359375 -65.445312 36.359375 -54.53125 C 36.359375 -43.613281 39.507812 -35.050781 45.8125 -28.84375 C 52.125 -22.632812 60.738281 -19.53125 71.65625 -19.53125 C 82.570312 -19.53125 91.160156 -22.632812 97.421875 -28.84375 C 103.679688 -35.050781 106.8125 -43.613281 106.8125 -54.53125 C 106.8125 -65.550781 103.679688 -74.140625 97.421875 -80.296875 C 91.160156 -86.460938 82.570312 -89.546875 71.65625 -89.546875 Z M 71.65625 -89.546875 "/></g></g></g><g fill="#5ce1e6" fill-opacity="1"><g transform="translate(647.72613, 285.413123)"><g><path d="M 61.890625 -109.0625 L 89.234375 -109.0625 L 89.234375 -40.40625 C 89.234375 -25.6875 85.425781 -14.796875 77.8125 -7.734375 C 70.207031 -0.671875 59.992188 2.859375 47.171875 2.859375 C 32.753906 2.859375 22.164062 -0.46875 15.40625 -7.125 C 8.644531 -13.789062 5.265625 -23.984375 5.265625 -37.703125 L 5.265625 -44.921875 L 31.09375 -44.921875 L 31.09375 -39.96875 C 31.09375 -26.34375 36.148438 -19.53125 46.265625 -19.53125 C 52.773438 -19.53125 57.003906 -21.632812 58.953125 -25.84375 C 60.910156 -30.050781 61.890625 -36.410156 61.890625 -44.921875 Z M 61.890625 -109.0625 "/></g></g></g><g fill="#5ce1e6" fill-opacity="1"><g transform="translate(744.318812, 285.413123)"><g><path d="M 12.171875 -109.0625 L 109.0625 -109.0625 L 109.0625 -86.6875 L 39.515625 -86.6875 L 39.515625 -68.5 L 101.40625 -68.5 L 101.40625 -46.125 L 39.515625 -46.125 L 39.515625 -22.390625 L 109.0625 -22.390625 L 109.0625 0 L 12.171875 0 Z M 12.171875 -109.0625 "/></g></g></g><g fill="#5ce1e6" fill-opacity="1"><g transform="translate(856.684862, 285.413123)"><g><path d="M 134.015625 -69.265625 L 104.265625 -69.265625 C 100.660156 -82.785156 89.789062 -89.546875 71.65625 -89.546875 C 60.738281 -89.546875 52.125 -86.4375 45.8125 -80.21875 C 39.507812 -74.007812 36.359375 -65.445312 36.359375 -54.53125 C 36.359375 -43.613281 39.507812 -35.050781 45.8125 -28.84375 C 52.125 -22.632812 60.738281 -19.53125 71.65625 -19.53125 C 81.269531 -19.53125 88.929688 -21.554688 94.640625 -25.609375 C 100.359375 -29.671875 103.664062 -35.253906 104.5625 -42.359375 L 134.453125 -42.359375 C 133.554688 -33.453125 130.398438 -25.59375 124.984375 -18.78125 C 119.578125 -11.96875 112.34375 -6.65625 103.28125 -2.84375 C 94.21875 0.957031 83.675781 2.859375 71.65625 2.859375 C 58.34375 2.859375 46.773438 0.476562 36.953125 -4.28125 C 27.140625 -9.039062 19.578125 -15.726562 14.265625 -24.34375 C 8.960938 -32.957031 6.3125 -43.019531 6.3125 -54.53125 C 6.3125 -66.050781 8.960938 -76.117188 14.265625 -84.734375 C 19.578125 -93.347656 27.140625 -100.03125 36.953125 -104.78125 C 46.773438 -109.539062 58.34375 -111.921875 71.65625 -111.921875 C 83.675781 -111.921875 94.191406 -110.066406 103.203125 -106.359375 C 112.222656 -102.660156 119.382812 -97.601562 124.6875 -91.1875 C 130 -84.78125 133.109375 -77.472656 134.015625 -69.265625 Z M 134.015625 -69.265625 "/></g></g></g><g fill="#5ce1e6" fill-opacity="1"><g transform="translate(992.635859, 285.413123)"><g><path d="M -0.90625 -109.0625 L 101.265625 -109.0625 L 101.265625 -86.6875 L 63.84375 -86.6875 L 63.84375 0 L 36.5 0 L 36.5 -86.6875 L -0.90625 -86.6875 Z M -0.90625 -109.0625 "/></g></g></g><g fill="#5ce1e6" fill-opacity="1"><g transform="translate(1088.176944, 285.413123)"><g><path d="M 117.1875 -75.5625 L 89.984375 -75.5625 C 88.785156 -86.382812 79.875 -91.796875 63.25 -91.796875 C 55.332031 -91.796875 49.320312 -90.664062 45.21875 -88.40625 C 41.113281 -86.15625 39.0625 -83.128906 39.0625 -79.328125 C 39.0625 -75.316406 40.785156 -72.6875 44.234375 -71.4375 C 47.691406 -70.1875 53.328125 -69.160156 61.140625 -68.359375 L 81.421875 -66.25 C 95.148438 -64.75 105.34375 -61.441406 112 -56.328125 C 118.65625 -51.222656 121.984375 -43.863281 121.984375 -34.25 C 121.984375 -22.332031 117.097656 -13.164062 107.328125 -6.75 C 97.566406 -0.34375 83.125 2.859375 64 2.859375 C 45.570312 2.859375 31.570312 -0.492188 22 -7.203125 C 12.4375 -13.921875 7.65625 -24.085938 7.65625 -37.703125 L 35.609375 -37.703125 C 35.503906 -24.484375 46.070312 -17.875 67.3125 -17.875 C 75.414062 -17.875 81.597656 -19.050781 85.859375 -21.40625 C 90.117188 -23.757812 92.25 -27.039062 92.25 -31.25 C 92.25 -35.457031 90.519531 -38.3125 87.0625 -39.8125 C 83.601562 -41.3125 78.171875 -42.414062 70.765625 -43.125 L 51.53125 -45.078125 C 37.601562 -46.472656 27.234375 -49.625 20.421875 -54.53125 C 13.617188 -59.4375 10.21875 -66.5 10.21875 -75.71875 C 10.21875 -82.53125 12.316406 -88.664062 16.515625 -94.125 C 20.722656 -99.582031 26.757812 -103.910156 34.625 -107.109375 C 42.488281 -110.316406 51.878906 -111.921875 62.796875 -111.921875 C 80.222656 -111.921875 93.644531 -108.710938 103.0625 -102.296875 C 112.476562 -95.890625 117.1875 -86.976562 117.1875 -75.5625 Z M 117.1875 -75.5625 "/></g></g></g><g fill="#5fc4f5" fill-opacity="1"><g transform="translate(273.454635, 271.392533)"><g><path d="M 12.171875 0 L 12.171875 -109.0625 L 76.765625 -109.0625 C 89.585938 -109.0625 99.476562 -105.753906 106.4375 -99.140625 C 113.394531 -92.535156 116.875 -83.476562 116.875 -71.96875 C 116.875 -60.445312 113.394531 -51.28125 106.4375 -44.46875 C 99.476562 -37.65625 89.585938 -34.25 76.765625 -34.25 L 39.515625 -34.25 L 39.515625 0 Z M 39.515625 -86.6875 L 39.515625 -56.640625 L 64.59375 -56.640625 C 73.113281 -56.640625 79.398438 -57.613281 83.453125 -59.5625 C 87.515625 -61.519531 89.546875 -65.503906 89.546875 -71.515625 C 89.546875 -77.722656 87.71875 -81.800781 84.0625 -83.75 C 80.40625 -85.707031 74.519531 -86.6875 66.40625 -86.6875 Z M 39.515625 -86.6875 "/></g></g></g><g fill="#5fc4f5" fill-opacity="1"><g transform="translate(391.829576, 271.392533)"><g><path d="M 12.171875 0 L 12.171875 -109.0625 L 79.171875 -109.0625 C 93.390625 -109.0625 104.003906 -106.757812 111.015625 -102.15625 C 118.035156 -97.550781 121.546875 -90.09375 121.546875 -79.78125 C 121.546875 -73.363281 119.96875 -67.703125 116.8125 -62.796875 C 113.65625 -57.890625 109.222656 -54.332031 103.515625 -52.125 C 107.421875 -50.53125 110.296875 -48.726562 112.140625 -46.71875 C 113.992188 -44.71875 115.242188 -42.289062 115.890625 -39.4375 C 116.546875 -36.582031 116.976562 -33.050781 117.1875 -28.84375 C 117.488281 -22.332031 117.890625 -16.644531 118.390625 -11.78125 C 118.890625 -6.925781 120.441406 -3 123.046875 0 L 92.390625 0 C 90.890625 -2.40625 90.140625 -5.207031 90.140625 -8.40625 L 90.140625 -15.921875 C 90.140625 -22.128906 89.6875 -26.984375 88.78125 -30.484375 C 87.882812 -33.992188 86.054688 -36.472656 83.296875 -37.921875 C 80.546875 -39.378906 76.46875 -40.109375 71.0625 -40.109375 L 39.515625 -40.109375 L 39.515625 0 Z M 39.515625 -86.6875 L 39.515625 -62.5 L 70.453125 -62.5 C 77.867188 -62.5 83.425781 -63.375 87.125 -65.125 C 90.832031 -66.875 92.6875 -70.304688 92.6875 -75.421875 C 92.6875 -78.921875 91.835938 -81.445312 90.140625 -83 C 88.441406 -84.550781 85.863281 -85.550781 82.40625 -86 C 78.945312 -86.457031 74.566406 -86.6875 69.265625 -86.6875 Z M 39.515625 -86.6875 "/></g></g></g><g fill="#5fc4f5" fill-opacity="1"><g transform="translate(516.363659, 271.392533)"><g><path d="M 71.65625 -111.921875 C 85.082031 -111.921875 96.648438 -109.539062 106.359375 -104.78125 C 116.078125 -100.03125 123.585938 -93.347656 128.890625 -84.734375 C 134.203125 -76.117188 136.859375 -66.050781 136.859375 -54.53125 C 136.859375 -43.019531 134.203125 -32.957031 128.890625 -24.34375 C 123.585938 -15.726562 116.078125 -9.039062 106.359375 -4.28125 C 96.648438 0.476562 85.082031 2.859375 71.65625 2.859375 C 58.34375 2.859375 46.773438 0.476562 36.953125 -4.28125 C 27.140625 -9.039062 19.578125 -15.726562 14.265625 -24.34375 C 8.960938 -32.957031 6.3125 -43.019531 6.3125 -54.53125 C 6.3125 -66.050781 8.960938 -76.117188 14.265625 -84.734375 C 19.578125 -93.347656 27.140625 -100.03125 36.953125 -104.78125 C 46.773438 -109.539062 58.34375 -111.921875 71.65625 -111.921875 Z M 71.65625 -89.546875 C 60.738281 -89.546875 52.125 -86.4375 45.8125 -80.21875 C 39.507812 -74.007812 36.359375 -65.445312 36.359375 -54.53125 C 36.359375 -43.613281 39.507812 -35.050781 45.8125 -28.84375 C 52.125 -22.632812 60.738281 -19.53125 71.65625 -19.53125 C 82.570312 -19.53125 91.160156 -22.632812 97.421875 -28.84375 C 103.679688 -35.050781 106.8125 -43.613281 106.8125 -54.53125 C 106.8125 -65.550781 103.679688 -74.140625 97.421875 -80.296875 C 91.160156 -86.460938 82.570312 -89.546875 71.65625 -89.546875 Z M 71.65625 -89.546875 "/></g></g></g><g fill="#5fc4f5" fill-opacity="1"><g transform="translate(654.718211, 271.392533)"><g><path d="M 61.890625 -109.0625 L 89.234375 -109.0625 L 89.234375 -40.40625 C 89.234375 -25.6875 85.425781 -14.796875 77.8125 -7.734375 C 70.207031 -0.671875 59.992188 2.859375 47.171875 2.859375 C 32.753906 2.859375 22.164062 -0.46875 15.40625 -7.125 C 8.644531 -13.789062 5.265625 -23.984375 5.265625 -37.703125 L 5.265625 -44.921875 L 31.09375 -44.921875 L 31.09375 -39.96875 C 31.09375 -26.34375 36.148438 -19.53125 46.265625 -19.53125 C 52.773438 -19.53125 57.003906 -21.632812 58.953125 -25.84375 C 60.910156 -30.050781 61.890625 -36.410156 61.890625 -44.921875 Z M 61.890625 -109.0625 "/></g></g></g><g fill="#5fc4f5" fill-opacity="1"><g transform="translate(751.310893, 271.392533)"><g><path d="M 12.171875 -109.0625 L 109.0625 -109.0625 L 109.0625 -86.6875 L 39.515625 -86.6875 L 39.515625 -68.5 L 101.40625 -68.5 L 101.40625 -46.125 L 39.515625 -46.125 L 39.515625 -22.390625 L 109.0625 -22.390625 L 109.0625 0 L 12.171875 0 Z M 12.171875 -109.0625 "/></g></g></g><g fill="#5fc4f5" fill-opacity="1"><g transform="translate(863.676942, 271.392533)"><g><path d="M 134.015625 -69.265625 L 104.265625 -69.265625 C 100.660156 -82.785156 89.789062 -89.546875 71.65625 -89.546875 C 60.738281 -89.546875 52.125 -86.4375 45.8125 -80.21875 C 39.507812 -74.007812 36.359375 -65.445312 36.359375 -54.53125 C 36.359375 -43.613281 39.507812 -35.050781 45.8125 -28.84375 C 52.125 -22.632812 60.738281 -19.53125 71.65625 -19.53125 C 81.269531 -19.53125 88.929688 -21.554688 94.640625 -25.609375 C 100.359375 -29.671875 103.664062 -35.253906 104.5625 -42.359375 L 134.453125 -42.359375 C 133.554688 -33.453125 130.398438 -25.59375 124.984375 -18.78125 C 119.578125 -11.96875 112.34375 -6.65625 103.28125 -2.84375 C 94.21875 0.957031 83.675781 2.859375 71.65625 2.859375 C 58.34375 2.859375 46.773438 0.476562 36.953125 -4.28125 C 27.140625 -9.039062 19.578125 -15.726562 14.265625 -24.34375 C 8.960938 -32.957031 6.3125 -43.019531 6.3125 -54.53125 C 6.3125 -66.050781 8.960938 -76.117188 14.265625 -84.734375 C 19.578125 -93.347656 27.140625 -100.03125 36.953125 -104.78125 C 46.773438 -109.539062 58.34375 -111.921875 71.65625 -111.921875 C 83.675781 -111.921875 94.191406 -110.066406 103.203125 -106.359375 C 112.222656 -102.660156 119.382812 -97.601562 124.6875 -91.1875 C 130 -84.78125 133.109375 -77.472656 134.015625 -69.265625 Z M 134.015625 -69.265625 "/></g></g></g><g fill="#5fc4f5" fill-opacity="1"><g transform="translate(999.627939, 271.392533)"><g><path d="M -0.90625 -109.0625 L 101.265625 -109.0625 L 101.265625 -86.6875 L 63.84375 -86.6875 L 63.84375 0 L 36.5 0 L 36.5 -86.6875 L -0.90625 -86.6875 Z M -0.90625 -109.0625 "/></g></g></g><g fill="#5fc4f5" fill-opacity="1"><g transform="translate(1095.169024, 271.392533)"><g><path d="M 117.1875 -75.5625 L 89.984375 -75.5625 C 88.785156 -86.382812 79.875 -91.796875 63.25 -91.796875 C 55.332031 -91.796875 49.320312 -90.664062 45.21875 -88.40625 C 41.113281 -86.15625 39.0625 -83.128906 39.0625 -79.328125 C 39.0625 -75.316406 40.785156 -72.6875 44.234375 -71.4375 C 47.691406 -70.1875 53.328125 -69.160156 61.140625 -68.359375 L 81.421875 -66.25 C 95.148438 -64.75 105.34375 -61.441406 112 -56.328125 C 118.65625 -51.222656 121.984375 -43.863281 121.984375 -34.25 C 121.984375 -22.332031 117.097656 -13.164062 107.328125 -6.75 C 97.566406 -0.34375 83.125 2.859375 64 2.859375 C 45.570312 2.859375 31.570312 -0.492188 22 -7.203125 C 12.4375 -13.921875 7.65625 -24.085938 7.65625 -37.703125 L 35.609375 -37.703125 C 35.503906 -24.484375 46.070312 -17.875 67.3125 -17.875 C 75.414062 -17.875 81.597656 -19.050781 85.859375 -21.40625 C 90.117188 -23.757812 92.25 -27.039062 92.25 -31.25 C 92.25 -35.457031 90.519531 -38.3125 87.0625 -39.8125 C 83.601562 -41.3125 78.171875 -42.414062 70.765625 -43.125 L 51.53125 -45.078125 C 37.601562 -46.472656 27.234375 -49.625 20.421875 -54.53125 C 13.617188 -59.4375 10.21875 -66.5 10.21875 -75.71875 C 10.21875 -82.53125 12.316406 -88.664062 16.515625 -94.125 C 20.722656 -99.582031 26.757812 -103.910156 34.625 -107.109375 C 42.488281 -110.316406 51.878906 -111.921875 62.796875 -111.921875 C 80.222656 -111.921875 93.644531 -108.710938 103.0625 -102.296875 C 112.476562 -95.890625 117.1875 -86.976562 117.1875 -75.5625 Z M 117.1875 -75.5625 "/></g></g></g><g fill="#5e17eb" fill-opacity="1"><g transform="translate(280.446745, 255.832715)"><g><path d="M 12.171875 0 L 12.171875 -109.0625 L 76.765625 -109.0625 C 89.585938 -109.0625 99.476562 -105.753906 106.4375 -99.140625 C 113.394531 -92.535156 116.875 -83.476562 116.875 -71.96875 C 116.875 -60.445312 113.394531 -51.28125 106.4375 -44.46875 C 99.476562 -37.65625 89.585938 -34.25 76.765625 -34.25 L 39.515625 -34.25 L 39.515625 0 Z M 39.515625 -86.6875 L 39.515625 -56.640625 L 64.59375 -56.640625 C 73.113281 -56.640625 79.398438 -57.613281 83.453125 -59.5625 C 87.515625 -61.519531 89.546875 -65.503906 89.546875 -71.515625 C 89.546875 -77.722656 87.71875 -81.800781 84.0625 -83.75 C 80.40625 -85.707031 74.519531 -86.6875 66.40625 -86.6875 Z M 39.515625 -86.6875 "/></g></g></g><g fill="#5e17eb" fill-opacity="1"><g transform="translate(398.821686, 255.832715)"><g><path d="M 12.171875 0 L 12.171875 -109.0625 L 79.171875 -109.0625 C 93.390625 -109.0625 104.003906 -106.757812 111.015625 -102.15625 C 118.035156 -97.550781 121.546875 -90.09375 121.546875 -79.78125 C 121.546875 -73.363281 119.96875 -67.703125 116.8125 -62.796875 C 113.65625 -57.890625 109.222656 -54.332031 103.515625 -52.125 C 107.421875 -50.53125 110.296875 -48.726562 112.140625 -46.71875 C 113.992188 -44.71875 115.242188 -42.289062 115.890625 -39.4375 C 116.546875 -36.582031 116.976562 -33.050781 117.1875 -28.84375 C 117.488281 -22.332031 117.890625 -16.644531 118.390625 -11.78125 C 118.890625 -6.925781 120.441406 -3 123.046875 0 L 92.390625 0 C 90.890625 -2.40625 90.140625 -5.207031 90.140625 -8.40625 L 90.140625 -15.921875 C 90.140625 -22.128906 89.6875 -26.984375 88.78125 -30.484375 C 87.882812 -33.992188 86.054688 -36.472656 83.296875 -37.921875 C 80.546875 -39.378906 76.46875 -40.109375 71.0625 -40.109375 L 39.515625 -40.109375 L 39.515625 0 Z M 39.515625 -86.6875 L 39.515625 -62.5 L 70.453125 -62.5 C 77.867188 -62.5 83.425781 -63.375 87.125 -65.125 C 90.832031 -66.875 92.6875 -70.304688 92.6875 -75.421875 C 92.6875 -78.921875 91.835938 -81.445312 90.140625 -83 C 88.441406 -84.550781 85.863281 -85.550781 82.40625 -86 C 78.945312 -86.457031 74.566406 -86.6875 69.265625 -86.6875 Z M 39.515625 -86.6875 "/></g></g></g><g fill="#5e17eb" fill-opacity="1"><g transform="translate(523.355768, 255.832715)"><g><path d="M 71.65625 -111.921875 C 85.082031 -111.921875 96.648438 -109.539062 106.359375 -104.78125 C 116.078125 -100.03125 123.585938 -93.347656 128.890625 -84.734375 C 134.203125 -76.117188 136.859375 -66.050781 136.859375 -54.53125 C 136.859375 -43.019531 134.203125 -32.957031 128.890625 -24.34375 C 123.585938 -15.726562 116.078125 -9.039062 106.359375 -4.28125 C 96.648438 0.476562 85.082031 2.859375 71.65625 2.859375 C 58.34375 2.859375 46.773438 0.476562 36.953125 -4.28125 C 27.140625 -9.039062 19.578125 -15.726562 14.265625 -24.34375 C 8.960938 -32.957031 6.3125 -43.019531 6.3125 -54.53125 C 6.3125 -66.050781 8.960938 -76.117188 14.265625 -84.734375 C 19.578125 -93.347656 27.140625 -100.03125 36.953125 -104.78125 C 46.773438 -109.539062 58.34375 -111.921875 71.65625 -111.921875 Z M 71.65625 -89.546875 C 60.738281 -89.546875 52.125 -86.4375 45.8125 -80.21875 C 39.507812 -74.007812 36.359375 -65.445312 36.359375 -54.53125 C 36.359375 -43.613281 39.507812 -35.050781 45.8125 -28.84375 C 52.125 -22.632812 60.738281 -19.53125 71.65625 -19.53125 C 82.570312 -19.53125 91.160156 -22.632812 97.421875 -28.84375 C 103.679688 -35.050781 106.8125 -43.613281 106.8125 -54.53125 C 106.8125 -65.550781 103.679688 -74.140625 97.421875 -80.296875 C 91.160156 -86.460938 82.570312 -89.546875 71.65625 -89.546875 Z M 71.65625 -89.546875 "/></g></g></g><g fill="#5e17eb" fill-opacity="1"><g transform="translate(661.71032, 255.832715)"><g><path d="M 61.890625 -109.0625 L 89.234375 -109.0625 L 89.234375 -40.40625 C 89.234375 -25.6875 85.425781 -14.796875 77.8125 -7.734375 C 70.207031 -0.671875 59.992188 2.859375 47.171875 2.859375 C 32.753906 2.859375 22.164062 -0.46875 15.40625 -7.125 C 8.644531 -13.789062 5.265625 -23.984375 5.265625 -37.703125 L 5.265625 -44.921875 L 31.09375 -44.921875 L 31.09375 -39.96875 C 31.09375 -26.34375 36.148438 -19.53125 46.265625 -19.53125 C 52.773438 -19.53125 57.003906 -21.632812 58.953125 -25.84375 C 60.910156 -30.050781 61.890625 -36.410156 61.890625 -44.921875 Z M 61.890625 -109.0625 "/></g></g></g><g fill="#5e17eb" fill-opacity="1"><g transform="translate(758.303002, 255.832715)"><g><path d="M 12.171875 -109.0625 L 109.0625 -109.0625 L 109.0625 -86.6875 L 39.515625 -86.6875 L 39.515625 -68.5 L 101.40625 -68.5 L 101.40625 -46.125 L 39.515625 -46.125 L 39.515625 -22.390625 L 109.0625 -22.390625 L 109.0625 0 L 12.171875 0 Z M 12.171875 -109.0625 "/></g></g></g><g fill="#5e17eb" fill-opacity="1"><g transform="translate(870.669051, 255.832715)"><g><path d="M 134.015625 -69.265625 L 104.265625 -69.265625 C 100.660156 -82.785156 89.789062 -89.546875 71.65625 -89.546875 C 60.738281 -89.546875 52.125 -86.4375 45.8125 -80.21875 C 39.507812 -74.007812 36.359375 -65.445312 36.359375 -54.53125 C 36.359375 -43.613281 39.507812 -35.050781 45.8125 -28.84375 C 52.125 -22.632812 60.738281 -19.53125 71.65625 -19.53125 C 81.269531 -19.53125 88.929688 -21.554688 94.640625 -25.609375 C 100.359375 -29.671875 103.664062 -35.253906 104.5625 -42.359375 L 134.453125 -42.359375 C 133.554688 -33.453125 130.398438 -25.59375 124.984375 -18.78125 C 119.578125 -11.96875 112.34375 -6.65625 103.28125 -2.84375 C 94.21875 0.957031 83.675781 2.859375 71.65625 2.859375 C 58.34375 2.859375 46.773438 0.476562 36.953125 -4.28125 C 27.140625 -9.039062 19.578125 -15.726562 14.265625 -24.34375 C 8.960938 -32.957031 6.3125 -43.019531 6.3125 -54.53125 C 6.3125 -66.050781 8.960938 -76.117188 14.265625 -84.734375 C 19.578125 -93.347656 27.140625 -100.03125 36.953125 -104.78125 C 46.773438 -109.539062 58.34375 -111.921875 71.65625 -111.921875 C 83.675781 -111.921875 94.191406 -110.066406 103.203125 -106.359375 C 112.222656 -102.660156 119.382812 -97.601562 124.6875 -91.1875 C 130 -84.78125 133.109375 -77.472656 134.015625 -69.265625 Z M 134.015625 -69.265625 "/></g></g></g><g fill="#5e17eb" fill-opacity="1"><g transform="translate(1006.620048, 255.832715)"><g><path d="M -0.90625 -109.0625 L 101.265625 -109.0625 L 101.265625 -86.6875 L 63.84375 -86.6875 L 63.84375 0 L 36.5 0 L 36.5 -86.6875 L -0.90625 -86.6875 Z M -0.90625 -109.0625 "/></g></g></g><g fill="#5e17eb" fill-opacity="1"><g transform="translate(1102.161133, 255.832715)"><g><path d="M 117.1875 -75.5625 L 89.984375 -75.5625 C 88.785156 -86.382812 79.875 -91.796875 63.25 -91.796875 C 55.332031 -91.796875 49.320312 -90.664062 45.21875 -88.40625 C 41.113281 -86.15625 39.0625 -83.128906 39.0625 -79.328125 C 39.0625 -75.316406 40.785156 -72.6875 44.234375 -71.4375 C 47.691406 -70.1875 53.328125 -69.160156 61.140625 -68.359375 L 81.421875 -66.25 C 95.148438 -64.75 105.34375 -61.441406 112 -56.328125 C 118.65625 -51.222656 121.984375 -43.863281 121.984375 -34.25 C 121.984375 -22.332031 117.097656 -13.164062 107.328125 -6.75 C 97.566406 -0.34375 83.125 2.859375 64 2.859375 C 45.570312 2.859375 31.570312 -0.492188 22 -7.203125 C 12.4375 -13.921875 7.65625 -24.085938 7.65625 -37.703125 L 35.609375 -37.703125 C 35.503906 -24.484375 46.070312 -17.875 67.3125 -17.875 C 75.414062 -17.875 81.597656 -19.050781 85.859375 -21.40625 C 90.117188 -23.757812 92.25 -27.039062 92.25 -31.25 C 92.25 -35.457031 90.519531 -38.3125 87.0625 -39.8125 C 83.601562 -41.3125 78.171875 -42.414062 70.765625 -43.125 L 51.53125 -45.078125 C 37.601562 -46.472656 27.234375 -49.625 20.421875 -54.53125 C 13.617188 -59.4375 10.21875 -66.5 10.21875 -75.71875 C 10.21875 -82.53125 12.316406 -88.664062 16.515625 -94.125 C 20.722656 -99.582031 26.757812 -103.910156 34.625 -107.109375 C 42.488281 -110.316406 51.878906 -111.921875 62.796875 -111.921875 C 80.222656 -111.921875 93.644531 -108.710938 103.0625 -102.296875 C 112.476562 -95.890625 117.1875 -86.976562 117.1875 -75.5625 Z M 117.1875 -75.5625 "/></g></g></g><g clip-path="url(#7d88dfb158)"><path fill="#5e17eb" d="M 1282.863281 290.769531 C 1259.121094 295.140625 1255.578125 298.683594 1251.210938 322.425781 C 1246.839844 298.683594 1243.296875 295.140625 1219.554688 290.769531 C 1243.296875 286.398438 1246.839844 282.855469 1251.207031 259.113281 C 1255.578125 282.855469 1259.121094 286.398438 1282.863281 290.769531 Z M 1282.863281 290.769531 " fill-opacity="1" fill-rule="nonzero"/></g><g clip-path="url(#b57a07d1b6)"><path fill="#5e17eb" d="M 298.109375 121.84375 C 274.367188 126.214844 270.824219 129.757812 266.457031 153.5 C 262.085938 129.757812 258.542969 126.214844 234.800781 121.84375 C 258.542969 117.472656 262.085938 113.929688 266.453125 90.1875 C 270.824219 113.929688 274.367188 117.472656 298.109375 121.84375 Z M 298.109375 121.84375 " fill-opacity="1" fill-rule="nonzero"/></g></svg>