<svg xmlns="http://www.w3.org/2000/svg" xmlns:xlink="http://www.w3.org/1999/xlink" width="500" zoomAndPan="magnify" viewBox="0 0 375 374.999991" height="500" preserveAspectRatio="xMidYMid meet" version="1.0"><defs><clipPath id="2e41a69425"><path d="M 55.957031 70 L 319.207031 70 L 319.207031 305 L 55.957031 305 Z M 55.957031 70 " clip-rule="nonzero"/></clipPath></defs><g clip-path="url(#2e41a69425)"><path fill="#00d8ff" d="M 272.304688 146.429688 C 269.503906 145.46875 266.679688 144.578125 263.835938 143.757812 C 264.3125 141.804688 264.753906 139.875 265.144531 137.980469 C 271.554688 106.839844 267.363281 81.753906 253.046875 73.496094 C 239.320312 65.578125 216.871094 73.835938 194.195312 93.574219 C 191.960938 95.523438 189.777344 97.527344 187.644531 99.589844 C 186.214844 98.21875 184.761719 96.875 183.285156 95.558594 C 159.523438 74.453125 135.703125 65.558594 121.402344 73.839844 C 107.6875 81.78125 103.625 105.367188 109.398438 134.875 C 109.972656 137.796875 110.621094 140.707031 111.34375 143.597656 C 107.972656 144.554688 104.71875 145.574219 101.605469 146.660156 C 73.746094 156.378906 55.957031 171.605469 55.957031 187.402344 C 55.957031 203.714844 75.054688 220.078125 104.070312 230.003906 C 106.425781 230.804688 108.796875 231.546875 111.1875 232.230469 C 110.410156 235.339844 109.722656 238.472656 109.121094 241.625 C 103.617188 270.625 107.914062 293.648438 121.59375 301.542969 C 135.71875 309.691406 159.429688 301.316406 182.515625 281.125 C 184.390625 279.480469 186.21875 277.792969 188.007812 276.0625 C 190.320312 278.292969 192.691406 280.457031 195.121094 282.554688 C 217.484375 301.804688 239.574219 309.582031 253.238281 301.667969 C 267.351562 293.492188 271.9375 268.757812 265.984375 238.664062 C 265.515625 236.304688 264.988281 233.960938 264.40625 231.628906 C 266.070312 231.132812 267.703125 230.625 269.296875 230.097656 C 299.464844 220.097656 319.089844 203.933594 319.089844 187.402344 C 319.089844 171.546875 300.726562 156.21875 272.304688 146.429688 Z M 265.761719 219.425781 C 264.324219 219.898438 262.847656 220.359375 261.34375 220.808594 C 258.011719 210.257812 253.519531 199.042969 248.019531 187.457031 C 253.265625 176.144531 257.589844 165.074219 260.824219 154.59375 C 263.515625 155.375 266.128906 156.195312 268.648438 157.0625 C 292.996094 165.449219 307.851562 177.847656 307.851562 187.402344 C 307.851562 197.578125 291.808594 210.789062 265.761719 219.425781 Z M 254.957031 240.847656 C 257.589844 254.152344 257.964844 266.183594 256.21875 275.589844 C 254.652344 284.042969 251.503906 289.675781 247.605469 291.933594 C 239.3125 296.738281 221.578125 290.496094 202.453125 274.03125 C 200.191406 272.078125 197.984375 270.066406 195.835938 267.992188 C 203.25 259.878906 210.660156 250.449219 217.894531 239.976562 C 230.613281 238.847656 242.632812 237 253.53125 234.480469 C 254.054688 236.589844 254.53125 238.714844 254.957031 240.847656 Z M 145.664062 291.105469 C 137.5625 293.964844 131.109375 294.046875 127.207031 291.796875 C 118.910156 287.011719 115.457031 268.523438 120.164062 243.722656 C 120.722656 240.792969 121.363281 237.878906 122.085938 234.984375 C 132.863281 237.367188 144.792969 239.085938 157.546875 240.117188 C 164.828125 250.367188 172.449219 259.789062 180.132812 268.039062 C 178.5 269.617188 176.828125 271.160156 175.121094 272.65625 C 164.910156 281.585938 154.679688 287.917969 145.664062 291.105469 Z M 107.707031 219.359375 C 94.878906 214.972656 84.28125 209.269531 77.019531 203.050781 C 70.492188 197.457031 67.195312 191.90625 67.195312 187.402344 C 67.195312 177.816406 81.480469 165.589844 105.304688 157.28125 C 108.199219 156.273438 111.222656 155.320312 114.363281 154.429688 C 117.65625 165.144531 121.976562 176.347656 127.1875 187.675781 C 121.910156 199.171875 117.527344 210.554688 114.203125 221.394531 C 112.023438 220.769531 109.855469 220.09375 107.707031 219.359375 Z M 120.433594 132.714844 C 115.488281 107.433594 118.769531 88.359375 127.035156 83.574219 C 135.839844 78.476562 155.304688 85.742188 175.820312 103.96875 C 177.160156 105.160156 178.476562 106.375 179.769531 107.617188 C 172.125 115.828125 164.570312 125.179688 157.355469 135.367188 C 144.976562 136.515625 133.132812 138.359375 122.242188 140.828125 C 121.570312 138.140625 120.964844 135.433594 120.433594 132.714844 Z M 233.9375 160.753906 C 231.363281 156.308594 228.695312 151.921875 225.933594 147.589844 C 234.332031 148.652344 242.375 150.0625 249.929688 151.785156 C 247.660156 159.058594 244.835938 166.660156 241.507812 174.453125 C 239.074219 169.839844 236.550781 165.269531 233.9375 160.753906 Z M 187.648438 115.652344 C 192.835938 121.273438 198.027344 127.546875 203.132812 134.355469 C 192.773438 133.863281 182.394531 133.863281 172.035156 134.347656 C 177.148438 127.601562 182.382812 121.335938 187.648438 115.652344 Z M 141.066406 160.832031 C 138.484375 165.3125 136.007812 169.851562 133.636719 174.445312 C 130.363281 166.679688 127.5625 159.042969 125.277344 151.667969 C 132.785156 149.984375 140.789062 148.613281 149.132812 147.570312 C 146.339844 151.925781 143.648438 156.347656 141.066406 160.832031 Z M 149.371094 228.035156 C 140.753906 227.074219 132.625 225.769531 125.121094 224.132812 C 127.445312 216.628906 130.304688 208.828125 133.648438 200.894531 C 136.03125 205.492188 138.515625 210.035156 141.109375 214.515625 C 143.777344 219.121094 146.535156 223.636719 149.371094 228.035156 Z M 187.960938 259.945312 C 182.632812 254.191406 177.316406 247.832031 172.128906 240.988281 C 177.167969 241.1875 182.300781 241.285156 187.523438 241.285156 C 192.886719 241.285156 198.1875 241.167969 203.40625 240.933594 C 198.28125 247.898438 193.109375 254.269531 187.960938 259.945312 Z M 241.613281 200.488281 C 245.128906 208.511719 248.09375 216.269531 250.449219 223.648438 C 242.820312 225.390625 234.582031 226.792969 225.902344 227.832031 C 228.683594 223.421875 231.378906 218.957031 233.980469 214.4375 C 236.628906 209.847656 239.171875 205.195312 241.613281 200.488281 Z M 224.242188 208.820312 C 220.257812 215.746094 216.046875 222.542969 211.621094 229.195312 C 203.601562 229.765625 195.5625 230.046875 187.523438 230.042969 C 179.335938 230.042969 171.367188 229.789062 163.699219 229.289062 C 159.15625 222.652344 154.867188 215.84375 150.835938 208.882812 L 150.839844 208.882812 C 146.828125 201.957031 143.082031 194.878906 139.609375 187.671875 C 143.074219 180.460938 146.808594 173.378906 150.804688 166.449219 C 154.796875 159.519531 159.054688 152.738281 163.5625 146.128906 C 171.386719 145.539062 179.414062 145.230469 187.523438 145.230469 C 195.671875 145.230469 203.703125 145.539062 211.527344 146.136719 C 215.992188 152.738281 220.21875 159.492188 224.207031 166.390625 C 228.214844 173.304688 232 180.347656 235.550781 187.511719 C 232.035156 194.746094 228.265625 201.855469 224.242188 208.820312 Z M 247.433594 83.238281 C 256.242188 88.320312 259.671875 108.824219 254.132812 135.707031 C 253.78125 137.425781 253.382812 139.171875 252.953125 140.941406 C 242.035156 138.421875 230.179688 136.546875 217.769531 135.382812 C 210.539062 125.082031 203.046875 115.714844 195.523438 107.609375 C 197.496094 105.707031 199.515625 103.855469 201.578125 102.054688 C 221.003906 85.144531 239.160156 78.464844 247.433594 83.238281 Z M 187.523438 163.894531 C 200.5 163.894531 211.019531 174.417969 211.019531 187.402344 C 211.019531 200.386719 200.5 210.910156 187.523438 210.910156 C 174.546875 210.910156 164.027344 200.386719 164.027344 187.402344 C 164.027344 174.417969 174.546875 163.894531 187.523438 163.894531 Z M 187.523438 163.894531 " fill-opacity="1" fill-rule="nonzero"/></g></svg>