<svg xmlns="http://www.w3.org/2000/svg" xmlns:xlink="http://www.w3.org/1999/xlink" width="500" zoomAndPan="magnify" viewBox="0 0 375 374.999991" height="500" preserveAspectRatio="xMidYMid meet" version="1.0"><path fill="#6c4eb0" d="M 149.242188 98.304688 C 158.902344 86.105469 177.09375 80.078125 189.492188 79.765625 C 224.257812 79.101562 238.753906 122.867188 239.871094 140.265625 L 255.964844 145.140625 C 252.257812 91.808594 219.433594 63.828125 188.03125 63.828125 C 158.582031 63.820312 131.386719 85.449219 120.429688 117.164062 C 105.460938 159.449219 115.28125 200.097656 133.632812 232.632812 C 132.03125 234.746094 131.066406 238.472656 131.386719 242.050781 C 131.699219 251.8125 139.90625 259.941406 149.738281 259.941406 L 150.382812 259.941406 C 160.6875 259.621094 168.570312 251.007812 168.089844 240.75 C 168.089844 230.988281 159.71875 222.878906 149.898438 222.878906 L 149.242188 222.878906 C 148.597656 222.878906 147.644531 222.878906 146.828125 223.191406 C 133.472656 200.421875 127.832031 176.019531 129.9375 149.695312 C 131.214844 129.847656 137.660156 112.609375 149.242188 98.304688 Z M 149.242188 98.304688 " fill-opacity="1" fill-rule="nonzero"/><path fill="#6c4eb0" d="M 71.671875 282.894531 C 82.457031 299.15625 104.515625 309.550781 128.65625 309.550781 C 135.09375 309.550781 141.863281 309.078125 148.460938 307.445312 C 190.316406 299.316406 222.035156 273.949219 240.222656 236.550781 L 240.375 236.21875 C 249.710938 235.402344 256.953125 227.101562 256.480469 217.175781 C 255.984375 207.253906 247.9375 199.292969 238.128906 199.292969 L 237.472656 199.292969 C 227.34375 199.625 219.445312 208.242188 219.765625 218.496094 C 220.089844 223.695312 222.195312 227.925781 225.074219 231.007812 C 213.816406 253.132812 196.914062 269.382812 171.3125 283.054688 C 154.089844 292.152344 135.898438 295.578125 118.191406 293.140625 C 103.386719 291.035156 91.804688 284.34375 84.714844 273.625 C 74.101562 257.355469 73.132812 239.804688 81.976562 222.246094 C 88.433594 209.5625 98.082031 200.292969 104.527344 195.726562 C 102.914062 191.507812 100.980469 184.355469 100.015625 178.996094 C 52.34375 213.460938 57.1875 260.609375 71.671875 282.894531 Z M 71.671875 282.894531 " fill-opacity="1" fill-rule="nonzero"/><path fill="#6c4eb0" d="M 313.765625 275.71875 C 323.414062 256.207031 322.621094 223.363281 297.984375 195.222656 L 297.832031 195.546875 C 272.898438 165.945312 236.183594 149.683594 194.316406 149.683594 L 188.835938 149.683594 C 186.117188 143.671875 179.84375 139.921875 172.75 139.921875 L 172.269531 139.921875 C 162.136719 139.921875 154.238281 148.71875 154.574219 158.953125 C 154.894531 168.707031 163.101562 176.847656 172.921875 176.847656 L 173.71875 176.847656 C 180.972656 176.523438 187.246094 171.960938 189.8125 165.460938 L 195.777344 165.460938 C 220.585938 165.460938 244.070312 172.777344 265.496094 187.082031 C 281.898438 197.984375 293.664062 212.289062 300.261719 229.367188 C 306.042969 243.351562 305.730469 257.011719 299.777344 268.40625 C 290.601562 286.289062 275.140625 295.730469 254.707031 295.730469 C 241.824219 295.730469 229.277344 291.660156 222.828125 288.738281 C 218.972656 291.96875 212.527344 297.339844 207.851562 300.605469 C 222.011719 307.09375 236.34375 310.839844 250.183594 310.839844 C 281.578125 310.839844 304.902344 292.96875 313.765625 275.71875 Z M 313.765625 275.71875 " fill-opacity="1" fill-rule="nonzero"/></svg>