<svg xmlns="http://www.w3.org/2000/svg" xmlns:xlink="http://www.w3.org/1999/xlink" width="500" zoomAndPan="magnify" viewBox="0 0 375 374.999991" height="500" preserveAspectRatio="xMidYMid meet" version="1.0"><path fill="#f06292" d="M 282.011719 203.503906 C 272.875 203.550781 264.957031 205.742188 258.328125 209.015625 C 255.902344 204.175781 253.441406 199.914062 253.03125 196.746094 C 252.550781 193.050781 251.992188 190.84375 252.574219 186.4375 C 253.15625 182.035156 255.707031 175.796875 255.671875 175.328125 C 255.636719 174.859375 255.101562 172.617188 249.828125 172.578125 C 244.558594 172.542969 240.046875 173.59375 239.519531 174.984375 C 238.988281 176.375 237.972656 179.503906 237.34375 182.773438 C 236.421875 187.550781 226.820312 204.597656 221.371094 213.507812 C 219.589844 210.027344 218.074219 206.960938 217.757812 204.539062 C 217.277344 200.839844 216.71875 198.632812 217.300781 194.230469 C 217.882812 189.824219 220.433594 183.585938 220.394531 183.117188 C 220.359375 182.648438 219.824219 180.410156 214.554688 180.367188 C 209.285156 180.332031 204.773438 181.382812 204.246094 182.773438 C 203.714844 184.164062 203.144531 187.414062 202.070312 190.5625 C 200.988281 193.707031 188.230469 222.136719 184.882812 229.511719 C 183.179688 233.265625 181.699219 236.285156 180.652344 238.339844 C 180.648438 238.332031 180.648438 238.328125 180.648438 238.328125 C 180.648438 238.328125 180.582031 238.464844 180.476562 238.695312 C 179.578125 240.449219 179.046875 241.417969 179.046875 241.417969 C 179.046875 241.417969 179.054688 241.429688 179.066406 241.453125 C 178.355469 242.742188 177.59375 243.9375 177.21875 243.9375 C 176.957031 243.9375 176.429688 240.507812 177.332031 235.800781 C 179.234375 225.9375 183.789062 210.5625 183.75 210.027344 C 183.726562 209.753906 184.597656 207.074219 180.773438 205.671875 C 177.050781 204.3125 175.726562 206.582031 175.386719 206.585938 C 175.0625 206.59375 174.816406 207.390625 174.816406 207.390625 C 174.816406 207.390625 178.960938 190.09375 166.914062 190.09375 C 159.378906 190.09375 148.945312 198.335938 143.804688 205.804688 C 140.558594 207.574219 133.613281 211.363281 126.25 215.410156 C 123.421875 216.96875 120.535156 218.554688 117.792969 220.0625 C 117.609375 219.855469 117.417969 219.652344 117.230469 219.445312 C 102.617188 203.859375 75.613281 192.839844 76.753906 171.882812 C 77.171875 164.265625 79.820312 144.207031 128.652344 119.882812 C 168.648438 99.953125 200.671875 105.4375 206.207031 117.585938 C 214.109375 134.957031 189.089844 167.222656 147.554688 171.882812 C 131.730469 173.660156 123.390625 167.519531 121.316406 165.238281 C 119.136719 162.832031 118.808594 162.726562 117.996094 163.179688 C 116.671875 163.914062 117.507812 166.035156 117.996094 167.300781 C 119.238281 170.527344 124.324219 176.25 133 179.101562 C 140.636719 181.609375 159.21875 182.980469 181.6875 174.289062 C 206.859375 164.554688 226.511719 137.472656 220.734375 114.84375 C 214.863281 91.824219 176.691406 84.253906 140.558594 97.089844 C 119.03125 104.730469 95.753906 116.71875 79.015625 132.371094 C 59.113281 150.980469 55.9375 167.183594 57.246094 173.949219 C 61.894531 198 95.046875 213.664062 108.320312 225.269531 C 107.667969 225.628906 107.050781 225.96875 106.492188 226.277344 C 99.835938 229.570312 74.5625 242.796875 68.238281 256.765625 C 61.066406 272.609375 69.382812 283.984375 74.882812 285.515625 C 91.933594 290.257812 109.425781 281.726562 118.835938 267.703125 C 128.234375 253.6875 127.089844 235.429688 122.773438 227.097656 C 122.71875 226.996094 122.660156 226.894531 122.609375 226.789062 C 124.324219 225.773438 126.078125 224.738281 127.8125 223.71875 C 131.199219 221.726562 134.527344 219.871094 137.410156 218.304688 C 135.792969 222.726562 134.609375 228.03125 134 235.6875 C 133.273438 244.683594 136.964844 256.3125 141.789062 260.886719 C 143.917969 262.902344 146.472656 262.949219 148.089844 262.949219 C 153.703125 262.949219 156.265625 258.28125 159.089844 252.753906 C 162.546875 245.980469 165.617188 238.089844 165.617188 238.089844 C 165.617188 238.089844 161.769531 259.394531 172.261719 259.394531 C 176.089844 259.394531 179.933594 254.433594 181.652344 251.910156 C 181.65625 251.941406 181.65625 251.953125 181.65625 251.953125 C 181.65625 251.953125 181.757812 251.785156 181.953125 251.457031 C 182.351562 250.851562 182.578125 250.464844 182.578125 250.464844 C 182.578125 250.464844 182.585938 250.425781 182.597656 250.351562 C 184.136719 247.683594 187.546875 241.601562 192.65625 231.566406 C 199.265625 218.601562 205.597656 202.355469 205.597656 202.355469 C 205.597656 202.355469 206.1875 206.324219 208.121094 212.898438 C 209.253906 216.757812 211.667969 221.03125 213.574219 225.132812 C 212.042969 227.257812 211.101562 228.476562 211.101562 228.476562 C 211.101562 228.476562 211.109375 228.5 211.125 228.542969 C 209.902344 230.167969 208.527344 231.921875 207.089844 233.632812 C 201.875 239.84375 195.664062 246.9375 194.832031 248.980469 C 193.851562 251.394531 194.082031 253.164062 195.980469 254.59375 C 197.363281 255.636719 199.824219 255.800781 202.398438 255.628906 C 207.085938 255.316406 210.378906 254.148438 212.003906 253.441406 C 214.542969 252.546875 217.496094 251.136719 220.265625 249.097656 C 225.382812 245.339844 228.464844 239.960938 228.167969 232.832031 C 228.003906 228.902344 226.753906 225.011719 225.167969 221.339844 C 225.632812 220.675781 226.09375 219.996094 226.566406 219.320312 C 234.628906 207.53125 240.886719 194.578125 240.886719 194.578125 C 240.886719 194.578125 241.472656 198.546875 243.40625 205.121094 C 244.378906 208.441406 246.3125 212.070312 248.046875 215.625 C 240.464844 221.785156 235.761719 228.945312 234.128906 233.640625 C 231.109375 242.324219 233.476562 246.257812 237.910156 247.15625 C 239.917969 247.5625 242.757812 246.640625 244.890625 245.738281 C 247.546875 244.855469 250.738281 243.390625 253.722656 241.195312 C 258.839844 237.4375 263.757812 232.171875 263.460938 225.046875 C 263.324219 221.804688 262.445312 218.582031 261.25 215.492188 C 267.679688 212.8125 276 211.328125 286.601562 212.566406 C 309.34375 215.21875 313.800781 229.414062 312.949219 235.355469 C 312.09375 241.296875 307.328125 244.566406 305.730469 245.550781 C 304.136719 246.539062 303.648438 246.882812 303.78125 247.613281 C 303.976562 248.679688 304.714844 248.640625 306.074219 248.410156 C 307.945312 248.09375 318.011719 243.578125 318.445312 232.613281 C 318.988281 218.671875 305.648438 203.378906 282.011719 203.503906 Z M 106.730469 262.585938 C 99.195312 270.804688 88.675781 273.90625 84.160156 271.292969 C 79.289062 268.46875 81.21875 256.371094 90.457031 247.648438 C 96.09375 242.339844 103.367188 237.441406 108.191406 234.429688 C 109.289062 233.769531 110.902344 232.800781 112.863281 231.625 C 113.1875 231.441406 113.371094 231.339844 113.371094 231.339844 L 113.367188 231.328125 C 113.746094 231.101562 114.132812 230.871094 114.53125 230.628906 C 117.902344 243.039062 114.640625 253.964844 106.730469 262.585938 Z M 161.609375 225.292969 C 158.988281 231.683594 153.496094 248.046875 150.152344 247.167969 C 147.28125 246.414062 145.535156 233.976562 149.582031 221.738281 C 151.613281 215.578125 155.960938 208.214844 158.519531 205.355469 C 162.628906 200.757812 167.15625 199.253906 168.257812 201.121094 C 169.652344 203.496094 163.253906 221.28125 161.609375 225.292969 Z M 206.941406 246.917969 C 205.832031 247.5 204.808594 247.863281 204.339844 247.585938 C 203.988281 247.375 204.796875 246.609375 204.796875 246.609375 C 204.796875 246.609375 210.464844 240.507812 212.699219 237.734375 C 214.003906 236.117188 215.503906 234.199219 217.144531 232.058594 C 217.15625 232.273438 217.164062 232.488281 217.164062 232.695312 C 217.152344 240.003906 210.09375 244.933594 206.941406 246.917969 Z M 241.867188 238.957031 C 241.035156 238.367188 241.175781 236.460938 243.90625 230.515625 C 244.972656 228.179688 247.421875 224.25 251.664062 220.496094 C 252.160156 222.042969 252.457031 223.519531 252.449219 224.898438 C 252.394531 234.097656 245.835938 237.53125 241.867188 238.957031 Z M 241.867188 238.957031 " fill-opacity="1" fill-rule="nonzero"/></svg>