<svg xmlns="http://www.w3.org/2000/svg" xmlns:xlink="http://www.w3.org/1999/xlink" width="2000" zoomAndPan="magnify" viewBox="0 0 1500 449.999984" height="600" preserveAspectRatio="xMidYMid meet" version="1.0"><defs><g/></defs><g fill="#5e17eb" fill-opacity="1"><g transform="translate(257.283348, 341.999973)"><g><path d="M 76.65625 -188.296875 L 113.75 -191.796875 C 113.75 -199.035156 113.109375 -206.675781 111.828125 -214.71875 C 110.546875 -222.769531 108.035156 -230.296875 104.296875 -237.296875 C 100.566406 -244.066406 95.257812 -249.609375 88.375 -253.921875 C 81.488281 -258.242188 72.332031 -260.285156 60.90625 -260.046875 C 52.03125 -259.816406 44.441406 -257.890625 38.140625 -254.265625 C 31.847656 -250.648438 26.71875 -246.046875 22.75 -240.453125 C 18.78125 -234.617188 15.921875 -228.140625 14.171875 -221.015625 C 12.421875 -213.898438 11.546875 -206.84375 11.546875 -199.84375 C 11.546875 -192.84375 12.597656 -185.960938 14.703125 -179.203125 C 18.429688 -165.898438 24.613281 -152.597656 33.25 -139.296875 C 37.445312 -132.765625 41.53125 -126.582031 45.5 -120.75 C 49.46875 -114.914062 53.316406 -109.316406 57.046875 -103.953125 C 58.910156 -101.378906 60.601562 -98.8125 62.125 -96.25 C 63.644531 -93.6875 65.21875 -91.117188 66.84375 -88.546875 C 69.644531 -83.410156 71.976562 -78.453125 73.84375 -73.671875 C 75.71875 -68.890625 76.65625 -64.398438 76.65625 -60.203125 C 76.65625 -52.035156 75.488281 -45.265625 73.15625 -39.890625 C 70.820312 -34.523438 66.851562 -31.84375 61.25 -31.84375 C 57.28125 -31.84375 54.128906 -33.125 51.796875 -35.6875 C 49.460938 -38.257812 47.710938 -41.644531 46.546875 -45.84375 C 45.148438 -49.8125 44.273438 -54.421875 43.921875 -59.671875 C 43.578125 -64.921875 43.40625 -70.226562 43.40625 -75.59375 L 6.296875 -72.09375 C 6.296875 -62.53125 6.9375 -53.253906 8.21875 -44.265625 C 9.507812 -35.285156 12.019531 -27.296875 15.75 -20.296875 C 19.71875 -13.296875 25.257812 -7.695312 32.375 -3.5 C 39.488281 0.695312 49.113281 2.796875 61.25 2.796875 C 71.519531 2.796875 80.035156 0.988281 86.796875 -2.625 C 93.566406 -6.238281 98.9375 -10.960938 102.90625 -16.796875 C 106.863281 -22.867188 109.660156 -29.753906 111.296875 -37.453125 C 112.929688 -45.148438 113.75 -53.316406 113.75 -61.953125 C 113.75 -68.953125 112.695312 -75.773438 110.59375 -82.421875 C 108.5 -89.078125 105.816406 -95.671875 102.546875 -102.203125 C 99.285156 -108.734375 95.550781 -115.265625 91.34375 -121.796875 C 87.144531 -128.328125 82.832031 -134.863281 78.40625 -141.40625 C 74.664062 -146.769531 71.046875 -152.015625 67.546875 -157.140625 C 64.046875 -162.273438 60.894531 -167.296875 58.09375 -172.203125 C 55.300781 -177.097656 53.03125 -181.820312 51.28125 -186.375 C 49.53125 -190.925781 48.65625 -195.414062 48.65625 -199.84375 C 48.65625 -207.3125 49.585938 -213.378906 51.453125 -218.046875 C 53.316406 -222.710938 56.695312 -225.164062 61.59375 -225.40625 C 64.632812 -225.40625 67.144531 -224.296875 69.125 -222.078125 C 71.101562 -219.859375 72.675781 -217 73.84375 -213.5 C 75.007812 -209.769531 75.769531 -205.6875 76.125 -201.25 C 76.476562 -196.8125 76.65625 -192.492188 76.65625 -188.296875 Z M 76.65625 -188.296875 "/></g></g></g><g fill="#5e17eb" fill-opacity="1"><g transform="translate(433.681467, 341.999973)"><g><path d="M 51.796875 -257.25 L 14 -257.25 L 14 0 L 51.796875 0 L 51.796875 -91 L 60.546875 -112 L 62.65625 -117.25 L 63.703125 -117.25 L 64.75 -112 L 91 0 L 127.75 0 L 88.546875 -172.546875 L 123.203125 -257.25 L 86.453125 -257.25 L 54.953125 -171.5 L 53.203125 -167.296875 L 51.796875 -167.296875 Z M 51.796875 -257.25 "/></g></g></g><g fill="#5e17eb" fill-opacity="1"><g transform="translate(621.279365, 341.999973)"><g><path d="M 14 -257.25 L 14 0 L 51.796875 0 L 51.796875 -257.25 Z M 14 -257.25 "/></g></g></g><g fill="#5e17eb" fill-opacity="1"><g transform="translate(743.428326, 341.999973)"><g><path d="M 14 -257.25 L 14 0 L 101.84375 0 L 101.84375 -35 L 51.796875 -35 L 51.796875 -257.25 Z M 14 -257.25 "/></g></g></g><g fill="#5e17eb" fill-opacity="1"><g transform="translate(903.026746, 341.999973)"><g><path d="M 14 -257.25 L 14 0 L 101.84375 0 L 101.84375 -35 L 51.796875 -35 L 51.796875 -257.25 Z M 14 -257.25 "/></g></g></g><g fill="#5e17eb" fill-opacity="1"><g transform="translate(1062.625166, 341.999973)"><g><path d="M 76.65625 -188.296875 L 113.75 -191.796875 C 113.75 -199.035156 113.109375 -206.675781 111.828125 -214.71875 C 110.546875 -222.769531 108.035156 -230.296875 104.296875 -237.296875 C 100.566406 -244.066406 95.257812 -249.609375 88.375 -253.921875 C 81.488281 -258.242188 72.332031 -260.285156 60.90625 -260.046875 C 52.03125 -259.816406 44.441406 -257.890625 38.140625 -254.265625 C 31.847656 -250.648438 26.71875 -246.046875 22.75 -240.453125 C 18.78125 -234.617188 15.921875 -228.140625 14.171875 -221.015625 C 12.421875 -213.898438 11.546875 -206.84375 11.546875 -199.84375 C 11.546875 -192.84375 12.597656 -185.960938 14.703125 -179.203125 C 18.429688 -165.898438 24.613281 -152.597656 33.25 -139.296875 C 37.445312 -132.765625 41.53125 -126.582031 45.5 -120.75 C 49.46875 -114.914062 53.316406 -109.316406 57.046875 -103.953125 C 58.910156 -101.378906 60.601562 -98.8125 62.125 -96.25 C 63.644531 -93.6875 65.21875 -91.117188 66.84375 -88.546875 C 69.644531 -83.410156 71.976562 -78.453125 73.84375 -73.671875 C 75.71875 -68.890625 76.65625 -64.398438 76.65625 -60.203125 C 76.65625 -52.035156 75.488281 -45.265625 73.15625 -39.890625 C 70.820312 -34.523438 66.851562 -31.84375 61.25 -31.84375 C 57.28125 -31.84375 54.128906 -33.125 51.796875 -35.6875 C 49.460938 -38.257812 47.710938 -41.644531 46.546875 -45.84375 C 45.148438 -49.8125 44.273438 -54.421875 43.921875 -59.671875 C 43.578125 -64.921875 43.40625 -70.226562 43.40625 -75.59375 L 6.296875 -72.09375 C 6.296875 -62.53125 6.9375 -53.253906 8.21875 -44.265625 C 9.507812 -35.285156 12.019531 -27.296875 15.75 -20.296875 C 19.71875 -13.296875 25.257812 -7.695312 32.375 -3.5 C 39.488281 0.695312 49.113281 2.796875 61.25 2.796875 C 71.519531 2.796875 80.035156 0.988281 86.796875 -2.625 C 93.566406 -6.238281 98.9375 -10.960938 102.90625 -16.796875 C 106.863281 -22.867188 109.660156 -29.753906 111.296875 -37.453125 C 112.929688 -45.148438 113.75 -53.316406 113.75 -61.953125 C 113.75 -68.953125 112.695312 -75.773438 110.59375 -82.421875 C 108.5 -89.078125 105.816406 -95.671875 102.546875 -102.203125 C 99.285156 -108.734375 95.550781 -115.265625 91.34375 -121.796875 C 87.144531 -128.328125 82.832031 -134.863281 78.40625 -141.40625 C 74.664062 -146.769531 71.046875 -152.015625 67.546875 -157.140625 C 64.046875 -162.273438 60.894531 -167.296875 58.09375 -172.203125 C 55.300781 -177.097656 53.03125 -181.820312 51.28125 -186.375 C 49.53125 -190.925781 48.65625 -195.414062 48.65625 -199.84375 C 48.65625 -207.3125 49.585938 -213.378906 51.453125 -218.046875 C 53.316406 -222.710938 56.695312 -225.164062 61.59375 -225.40625 C 64.632812 -225.40625 67.144531 -224.296875 69.125 -222.078125 C 71.101562 -219.859375 72.675781 -217 73.84375 -213.5 C 75.007812 -209.769531 75.769531 -205.6875 76.125 -201.25 C 76.476562 -196.8125 76.65625 -192.492188 76.65625 -188.296875 Z M 76.65625 -188.296875 "/></g></g></g></svg>