<svg xmlns="http://www.w3.org/2000/svg" xmlns:xlink="http://www.w3.org/1999/xlink" width="500" zoomAndPan="magnify" viewBox="0 0 375 374.999991" height="500" preserveAspectRatio="xMidYMid meet" version="1.0"><defs><clipPath id="9d23ff474f"><path d="M 64.53125 65 L 310.53125 65 L 310.53125 310 L 64.53125 310 Z M 64.53125 65 " clip-rule="nonzero"/></clipPath></defs><g clip-path="url(#9d23ff474f)"><path fill="#1a54bf" d="M 301.792969 91.0625 L 251.1875 66.71875 C 248.324219 65.332031 245.101562 64.871094 241.964844 65.402344 C 238.828125 65.933594 235.9375 67.425781 233.691406 69.675781 L 136.761719 158.117188 L 94.519531 126.085938 C 92.617188 124.632812 90.265625 123.890625 87.875 123.992188 C 85.480469 124.097656 83.199219 125.035156 81.429688 126.648438 L 67.898438 138.976562 C 66.84375 139.933594 65.996094 141.097656 65.417969 142.402344 C 64.835938 143.703125 64.535156 145.113281 64.53125 146.535156 C 64.527344 147.960938 64.820312 149.371094 65.394531 150.675781 C 65.96875 151.980469 66.808594 153.152344 67.863281 154.113281 L 104.5 187.542969 L 67.863281 220.976562 C 66.808594 221.9375 65.96875 223.109375 65.394531 224.414062 C 64.820312 225.71875 64.527344 227.128906 64.53125 228.554688 C 64.535156 229.976562 64.835938 231.386719 65.417969 232.6875 C 65.996094 233.992188 66.84375 235.15625 67.898438 236.113281 L 81.429688 248.441406 C 83.199219 250.054688 85.480469 250.992188 87.875 251.097656 C 90.265625 251.199219 92.617188 250.457031 94.519531 249.003906 L 136.761719 216.933594 L 233.738281 305.414062 C 235.976562 307.664062 238.863281 309.160156 241.992188 309.6875 C 245.121094 310.21875 248.335938 309.757812 251.195312 308.371094 L 301.84375 283.988281 C 304.453125 282.734375 306.652344 280.769531 308.191406 278.316406 C 309.726562 275.867188 310.539062 273.027344 310.53125 270.136719 L 310.53125 104.898438 C 310.53125 99.011719 307.125 93.605469 301.804688 91.046875 Z M 249.058594 243.40625 L 175.46875 187.550781 L 249.058594 131.699219 Z M 249.058594 243.40625 " fill-opacity="1" fill-rule="nonzero"/></g></svg>